<?xml version="1.0" encoding="utf-8"?>
<!-- Generator: Adobe Illustrator 23.1.0, SVG Export Plug-In . SVG Version: 6.00 Build 0)  -->
<svg version="1.1" id="Layer_1" xmlns="http://www.w3.org/2000/svg" xmlns:xlink="http://www.w3.org/1999/xlink" x="0px" y="0px"
	 viewBox="0 0 3524.68 2000" style="enable-background:new 0 0 3524.68 2000;" xml:space="preserve">
<style type="text/css">
	.st0{display:none;fill:#FFFFFF;}
	.st1{opacity:0.2;fill:#6AA2E5;}
	.st2{opacity:0.5;}
	.st3{fill:#488ACC;}
	.st4{fill:#6AA2E5;}
	.st5{fill:#CAE3FF;}
	.st6{opacity:0.3;}
	.st7{fill:#3F9896;}
	.st8{fill:#7FC6A6;}
	.st9{fill:#FFFFFF;}
	.st10{fill:#ED2B47;}
	.st11{fill:#1D1D1B;}
	.st12{fill:#D0F6FC;}
	.st13{fill:#20111D;}
	.st14{fill:#80C4A4;}
	.st15{fill:#4CB7D8;}
	.st16{opacity:0.7;}
	.st17{fill:#FE9F73;}
	.st18{fill:#FF424D;}
	.st19{fill:#F95565;}
	.st20{fill:#33192C;}
	.st21{fill:#4C222E;}
	.st22{fill:#21111D;}
	.st23{fill:#F07162;}
	.st24{fill:#FBFDFC;}
	.st25{fill:#D31E41;}
	.st26{fill:#4A263E;}
	.st27{fill:#3A2645;}
	.st28{fill:#1A1A1A;}
	.st29{fill:#9E9DA2;}
	.st30{fill:#D8D9DD;}
	.st31{fill:#FFB357;}
	.st32{fill:#CF283C;}
	.st33{fill:#F9E2C5;}
	.st34{fill:#F2932C;}
	.st35{fill:#FEB546;}
	.st36{fill:#A4E4EA;}
</style>
<rect x="0" class="st0" width="3524.68" height="2000"/>
<g>
	<path class="st1" d="M3280.87,802.59c-69.23-221.12-372.47-520.56-831.57-557.04c-459.11-36.48-664.54,81.77-793.41,253.08
		c-128.88,171.31-250.73,234.28-495.36,227.59c-201.49-5.5-555.72-233.93-877.9,197.14c-146.59,196.17-178.15,425.18-116.72,659.27
		c34.62,131.96,90.16,229.05,104.87,251.9h2994.8c0.87,0,15.34-62.45,30.75-160.66C3337.65,1410.65,3360.66,1057.44,3280.87,802.59z
		"/>
	<g class="st2">
		<g>
			<g>
				<polygon class="st3" points="1277.76,865.52 1277.76,784.88 1233.79,784.88 1233.79,671.52 1042.27,671.52 1042.27,784.88 
					998.29,784.88 998.29,865.52 945.16,865.52 945.16,1838.87 1330.89,1838.87 1330.89,865.52 				"/>
			</g>
		</g>
		<g>
			<g>
				<rect x="1407.17" y="695.53" class="st3" width="284.21" height="1136.79"/>
			</g>
		</g>
		<g>
			<g>
				<path class="st3" d="M2765.85,769.03v1069.84h-284.21V848.93c0.23,0.01,0.48,0.02,0.72,0.02c7.28,0.08,14.42-0.91,21.23-2.88
					c9.87-2.85,19.05-7.78,27.01-14.59c1.21-1.03,2.38-2.1,3.53-3.22c8.57-8.36,14.84-18.48,18.42-29.55
					c2.26-6.91,3.47-14.21,3.56-21.68c0.03-2.69-0.08-5.35-0.33-8H2765.85z"/>
			</g>
		</g>
		<g>
			<g>
				<rect x="1628.99" y="678.91" class="st4" width="328.12" height="1159.96"/>
			</g>
		</g>
		<g>
			<g>
				<polygon class="st4" points="1495.05,1094.83 1495.05,1033.19 1461.44,1033.19 1461.44,946.54 1315.04,946.54 1315.04,1033.19 
					1281.42,1033.19 1281.42,1094.83 1240.81,1094.83 1240.81,1838.87 1535.66,1838.87 1535.66,1094.83 				"/>
			</g>
		</g>
		<g>
			<g>
				<polygon class="st3" points="2377.49,946.82 2377.49,872.91 2329.55,872.91 2329.55,769.03 2120.74,769.03 2120.74,872.91 
					2072.8,872.91 2072.8,946.82 2014.88,946.82 2014.88,1838.87 2435.42,1838.87 2435.42,946.82 				"/>
			</g>
		</g>
		<g>
			<g>
				<polygon class="st5" points="1015.99,1225.42 1015.99,1174.6 979.1,1174.6 979.1,1103.16 898.77,1013.96 818.43,1103.16 
					818.43,1174.6 781.54,1174.6 781.54,1225.42 736.96,1225.42 736.96,1838.87 1060.57,1838.87 1060.57,1225.42 				"/>
			</g>
		</g>
		<g>
			<g>
				<rect x="2247.63" y="1085.59" class="st4" width="342.6" height="753.28"/>
			</g>
		</g>
		<g>
			<g class="st2">
				<g>
					<rect x="779.96" y="1269.51" class="st4" width="24.96" height="39.31"/>
				</g>
			</g>
			<g class="st2">
				<g>
					<rect x="834.26" y="1269.51" class="st4" width="24.96" height="39.31"/>
				</g>
			</g>
			<g class="st2">
				<g>
					<rect x="888.56" y="1269.51" class="st4" width="24.96" height="39.31"/>
				</g>
			</g>
			<g class="st2">
				<g>
					<rect x="942.86" y="1269.51" class="st4" width="24.96" height="39.31"/>
				</g>
			</g>
			<g class="st2">
				<g>
					<rect x="997.16" y="1269.51" class="st4" width="24.96" height="39.31"/>
				</g>
			</g>
		</g>
		<g>
			<g class="st2">
				<g>
					<rect x="779.96" y="1338.83" class="st4" width="24.96" height="39.31"/>
				</g>
			</g>
			<g class="st2">
				<g>
					<rect x="834.26" y="1338.83" class="st4" width="24.96" height="39.31"/>
				</g>
			</g>
			<g class="st2">
				<g>
					<rect x="888.56" y="1338.83" class="st4" width="24.96" height="39.31"/>
				</g>
			</g>
			<g class="st2">
				<g>
					<rect x="942.86" y="1338.83" class="st4" width="24.96" height="39.31"/>
				</g>
			</g>
			<g class="st2">
				<g>
					<rect x="997.16" y="1338.83" class="st4" width="24.96" height="39.31"/>
				</g>
			</g>
		</g>
		<g>
			<g class="st2">
				<g>
					<rect x="779.96" y="1408.15" class="st4" width="24.96" height="39.31"/>
				</g>
			</g>
			<g class="st2">
				<g>
					<rect x="834.26" y="1408.15" class="st4" width="24.96" height="39.31"/>
				</g>
			</g>
			<g class="st2">
				<g>
					<rect x="888.56" y="1408.15" class="st4" width="24.96" height="39.31"/>
				</g>
			</g>
			<g class="st2">
				<g>
					<rect x="942.86" y="1408.15" class="st4" width="24.96" height="39.31"/>
				</g>
			</g>
			<g class="st2">
				<g>
					<rect x="997.16" y="1408.15" class="st4" width="24.96" height="39.31"/>
				</g>
			</g>
		</g>
		<g>
			<g class="st2">
				<g>
					<rect x="779.96" y="1477.47" class="st4" width="24.96" height="39.31"/>
				</g>
			</g>
			<g class="st2">
				<g>
					<rect x="834.26" y="1477.47" class="st4" width="24.96" height="39.31"/>
				</g>
			</g>
			<g class="st2">
				<g>
					<rect x="888.56" y="1477.47" class="st4" width="24.96" height="39.31"/>
				</g>
			</g>
			<g class="st2">
				<g>
					<rect x="942.86" y="1477.47" class="st4" width="24.96" height="39.31"/>
				</g>
			</g>
			<g class="st2">
				<g>
					<rect x="997.16" y="1477.47" class="st4" width="24.96" height="39.31"/>
				</g>
			</g>
		</g>
		<g>
			<g class="st2">
				<g>
					<rect x="779.96" y="1546.79" class="st4" width="24.96" height="39.31"/>
				</g>
			</g>
			<g class="st2">
				<g>
					<rect x="834.26" y="1546.79" class="st4" width="24.96" height="39.31"/>
				</g>
			</g>
			<g class="st2">
				<g>
					<rect x="888.56" y="1546.79" class="st4" width="24.96" height="39.31"/>
				</g>
			</g>
			<g class="st2">
				<g>
					<rect x="942.86" y="1546.79" class="st4" width="24.96" height="39.31"/>
				</g>
			</g>
			<g class="st2">
				<g>
					<rect x="997.16" y="1546.79" class="st4" width="24.96" height="39.31"/>
				</g>
			</g>
		</g>
		<g>
			<g class="st2">
				<g>
					<rect x="779.96" y="1620.57" class="st4" width="24.96" height="39.31"/>
				</g>
			</g>
			<g class="st2">
				<g>
					<rect x="834.26" y="1620.57" class="st4" width="24.96" height="39.31"/>
				</g>
			</g>
			<g class="st2">
				<g>
					<rect x="888.56" y="1620.57" class="st4" width="24.96" height="39.31"/>
				</g>
			</g>
			<g class="st2">
				<g>
					<rect x="942.86" y="1620.57" class="st4" width="24.96" height="39.31"/>
				</g>
			</g>
			<g class="st2">
				<g>
					<rect x="997.16" y="1620.57" class="st4" width="24.96" height="39.31"/>
				</g>
			</g>
		</g>
		<g>
			<g class="st2">
				<g>
					<rect x="779.96" y="1694.35" class="st4" width="24.96" height="39.31"/>
				</g>
			</g>
			<g class="st2">
				<g>
					<rect x="834.26" y="1694.35" class="st4" width="24.96" height="39.31"/>
				</g>
			</g>
			<g class="st2">
				<g>
					<rect x="888.56" y="1694.35" class="st4" width="24.96" height="39.31"/>
				</g>
			</g>
			<g class="st2">
				<g>
					<rect x="942.86" y="1694.35" class="st4" width="24.96" height="39.31"/>
				</g>
			</g>
			<g class="st2">
				<g>
					<rect x="997.16" y="1694.35" class="st4" width="24.96" height="39.31"/>
				</g>
			</g>
		</g>
		<g>
			<g class="st2">
				<g>
					<rect x="779.96" y="1768.14" class="st4" width="24.96" height="39.31"/>
				</g>
			</g>
			<g class="st2">
				<g>
					<rect x="834.26" y="1768.14" class="st4" width="24.96" height="39.31"/>
				</g>
			</g>
			<g class="st2">
				<g>
					<rect x="888.56" y="1768.14" class="st4" width="24.96" height="39.31"/>
				</g>
			</g>
			<g class="st2">
				<g>
					<rect x="942.86" y="1768.14" class="st4" width="24.96" height="39.31"/>
				</g>
			</g>
			<g class="st2">
				<g>
					<rect x="997.16" y="1768.14" class="st4" width="24.96" height="39.31"/>
				</g>
			</g>
		</g>
		<g>
			<g class="st6">
				<g>
					<rect x="2269.05" y="1116.78" class="st4" width="291.15" height="23.68"/>
				</g>
			</g>
			<g class="st6">
				<g>
					<rect x="2269.05" y="1179.78" class="st4" width="291.15" height="23.68"/>
				</g>
			</g>
			<g class="st6">
				<g>
					<rect x="2269.05" y="1242.78" class="st4" width="291.15" height="23.68"/>
				</g>
			</g>
			<g class="st6">
				<g>
					<rect x="2269.05" y="1305.78" class="st4" width="291.15" height="23.68"/>
				</g>
			</g>
			<g class="st6">
				<g>
					<rect x="2269.05" y="1368.78" class="st4" width="291.15" height="23.68"/>
				</g>
			</g>
			<g class="st6">
				<g>
					<rect x="2269.05" y="1431.78" class="st4" width="291.15" height="23.68"/>
				</g>
			</g>
			<g class="st6">
				<g>
					<rect x="2269.05" y="1494.78" class="st4" width="291.15" height="23.68"/>
				</g>
			</g>
			<g class="st6">
				<g>
					<rect x="2269.05" y="1557.77" class="st4" width="291.15" height="23.68"/>
				</g>
			</g>
			<g class="st6">
				<g>
					<rect x="2269.05" y="1620.77" class="st4" width="291.15" height="23.68"/>
				</g>
			</g>
			<g class="st6">
				<g>
					<rect x="2269.05" y="1683.77" class="st4" width="291.15" height="23.68"/>
				</g>
			</g>
			<g class="st6">
				<g>
					<rect x="2269.05" y="1746.77" class="st4" width="291.15" height="23.68"/>
				</g>
			</g>
			<g class="st6">
				<g>
					<rect x="2269.05" y="1809.77" class="st4" width="291.15" height="23.68"/>
				</g>
			</g>
		</g>
		<g class="st6">
			<g>
				<rect x="1279.03" y="1130.65" class="st4" width="46.27" height="39.31"/>
			</g>
		</g>
		<g class="st6">
			<g>
				<rect x="1365.1" y="1130.65" class="st4" width="46.27" height="39.31"/>
			</g>
		</g>
		<g class="st6">
			<g>
				<rect x="1451.17" y="1130.65" class="st4" width="46.27" height="39.31"/>
			</g>
		</g>
		<g>
			<g class="st6">
				<g>
					<rect x="1279.03" y="1203.47" class="st4" width="46.27" height="39.31"/>
				</g>
			</g>
			<g class="st6">
				<g>
					<rect x="1365.1" y="1203.47" class="st4" width="46.27" height="39.31"/>
				</g>
			</g>
			<g class="st6">
				<g>
					<rect x="1451.17" y="1203.47" class="st4" width="46.27" height="39.31"/>
				</g>
			</g>
		</g>
		<g>
			<g class="st6">
				<g>
					<rect x="1279.03" y="1276.28" class="st4" width="46.27" height="39.31"/>
				</g>
			</g>
			<g class="st6">
				<g>
					<rect x="1365.1" y="1276.28" class="st4" width="46.27" height="39.31"/>
				</g>
			</g>
			<g class="st6">
				<g>
					<rect x="1451.17" y="1276.28" class="st4" width="46.27" height="39.31"/>
				</g>
			</g>
		</g>
		<g>
			<g class="st6">
				<g>
					<rect x="1279.03" y="1349.1" class="st4" width="46.27" height="39.31"/>
				</g>
			</g>
			<g class="st6">
				<g>
					<rect x="1365.1" y="1349.1" class="st4" width="46.27" height="39.31"/>
				</g>
			</g>
			<g class="st6">
				<g>
					<rect x="1451.17" y="1349.1" class="st4" width="46.27" height="39.31"/>
				</g>
			</g>
		</g>
		<g>
			<g class="st6">
				<g>
					<rect x="1279.03" y="1421.92" class="st4" width="46.27" height="39.31"/>
				</g>
			</g>
			<g class="st6">
				<g>
					<rect x="1365.1" y="1421.92" class="st4" width="46.27" height="39.31"/>
				</g>
			</g>
			<g class="st6">
				<g>
					<rect x="1451.17" y="1421.92" class="st4" width="46.27" height="39.31"/>
				</g>
			</g>
		</g>
		<g>
			<g class="st6">
				<g>
					<rect x="1279.03" y="1494.74" class="st4" width="46.27" height="39.31"/>
				</g>
			</g>
			<g class="st6">
				<g>
					<rect x="1365.1" y="1494.74" class="st4" width="46.27" height="39.31"/>
				</g>
			</g>
			<g class="st6">
				<g>
					<rect x="1451.17" y="1494.74" class="st4" width="46.27" height="39.31"/>
				</g>
			</g>
		</g>
		<g>
			<g class="st6">
				<g>
					<rect x="1279.03" y="1567.56" class="st4" width="46.27" height="39.31"/>
				</g>
			</g>
			<g class="st6">
				<g>
					<rect x="1365.1" y="1567.56" class="st4" width="46.27" height="39.31"/>
				</g>
			</g>
			<g class="st6">
				<g>
					<rect x="1451.17" y="1567.56" class="st4" width="46.27" height="39.31"/>
				</g>
			</g>
		</g>
		<g>
			<g class="st6">
				<g>
					<rect x="1279.03" y="1640.38" class="st4" width="46.27" height="39.31"/>
				</g>
			</g>
			<g class="st6">
				<g>
					<rect x="1365.1" y="1640.38" class="st4" width="46.27" height="39.31"/>
				</g>
			</g>
			<g class="st6">
				<g>
					<rect x="1451.17" y="1640.38" class="st4" width="46.27" height="39.31"/>
				</g>
			</g>
		</g>
		<g>
			<g class="st6">
				<g>
					<rect x="1279.03" y="1713.2" class="st4" width="46.27" height="39.31"/>
				</g>
			</g>
			<g class="st6">
				<g>
					<rect x="1365.1" y="1713.2" class="st4" width="46.27" height="39.31"/>
				</g>
			</g>
			<g class="st6">
				<g>
					<rect x="1451.17" y="1713.2" class="st4" width="46.27" height="39.31"/>
				</g>
			</g>
		</g>
		<g>
			<g class="st6">
				<g>
					<rect x="1279.03" y="1786.02" class="st4" width="46.27" height="39.31"/>
				</g>
			</g>
			<g class="st6">
				<g>
					<rect x="1365.1" y="1786.02" class="st4" width="46.27" height="39.31"/>
				</g>
			</g>
			<g class="st6">
				<g>
					<rect x="1451.17" y="1786.02" class="st4" width="46.27" height="39.31"/>
				</g>
			</g>
		</g>
		<g>
			<g class="st6">
				<g>
					<rect x="1647.18" y="720.71" class="st4" width="44.2" height="235.28"/>
				</g>
			</g>
			<g class="st6">
				<g>
					<rect x="1732.83" y="720.71" class="st4" width="44.2" height="235.28"/>
				</g>
			</g>
			<g class="st6">
				<g>
					<rect x="1818.47" y="720.71" class="st4" width="44.2" height="235.28"/>
				</g>
			</g>
			<g class="st6">
				<g>
					<rect x="1898.41" y="720.71" class="st4" width="44.2" height="235.28"/>
				</g>
			</g>
		</g>
		<g>
			<g class="st6">
				<g>
					<rect x="1647.18" y="1032.66" class="st4" width="44.2" height="235.28"/>
				</g>
			</g>
			<g class="st6">
				<g>
					<rect x="1732.83" y="1032.66" class="st4" width="44.2" height="235.28"/>
				</g>
			</g>
			<g class="st6">
				<g>
					<rect x="1818.47" y="1032.66" class="st4" width="44.2" height="235.28"/>
				</g>
			</g>
			<g class="st6">
				<g>
					<rect x="1898.41" y="1032.66" class="st4" width="44.2" height="235.28"/>
				</g>
			</g>
		</g>
		<g>
			<g class="st6">
				<g>
					<rect x="1647.18" y="1344.62" class="st4" width="44.2" height="235.28"/>
				</g>
			</g>
			<g class="st6">
				<g>
					<rect x="1732.83" y="1344.62" class="st4" width="44.2" height="235.28"/>
				</g>
			</g>
			<g class="st6">
				<g>
					<rect x="1818.47" y="1344.62" class="st4" width="44.2" height="235.28"/>
				</g>
			</g>
			<g class="st6">
				<g>
					<rect x="1898.41" y="1344.62" class="st4" width="44.2" height="235.28"/>
				</g>
			</g>
		</g>
		<g>
			<g class="st6">
				<g>
					<rect x="1647.18" y="1656.58" class="st4" width="44.2" height="182.29"/>
				</g>
			</g>
			<g class="st6">
				<g>
					<rect x="1732.83" y="1656.58" class="st4" width="44.2" height="182.29"/>
				</g>
			</g>
			<g class="st6">
				<g>
					<rect x="1818.47" y="1656.58" class="st4" width="44.2" height="182.29"/>
				</g>
			</g>
			<g class="st6">
				<g>
					<rect x="1898.41" y="1656.58" class="st4" width="44.2" height="182.29"/>
				</g>
			</g>
		</g>
		<g>
			<g>
				<g>
					<polygon class="st5" points="2098.12,1094.83 2098.12,1033.19 2064.51,1033.19 2064.51,946.54 1991.31,838.35 1918.11,946.54 
						1918.11,1033.19 1884.5,1033.19 1884.5,1094.83 1843.89,1094.83 1843.89,1838.87 2138.74,1838.87 2138.74,1094.83 					"/>
				</g>
			</g>
			<g>
				<g class="st2">
					<g>
						<rect x="1869.76" y="1140.47" class="st4" width="24.96" height="39.31"/>
					</g>
				</g>
				<g class="st2">
					<g>
						<rect x="1924.06" y="1140.47" class="st4" width="24.96" height="39.31"/>
					</g>
				</g>
				<g class="st2">
					<g>
						<rect x="1978.36" y="1140.47" class="st4" width="24.96" height="39.31"/>
					</g>
				</g>
				<g class="st2">
					<g>
						<rect x="2032.66" y="1140.47" class="st4" width="24.96" height="39.31"/>
					</g>
				</g>
				<g class="st2">
					<g>
						<rect x="2086.96" y="1140.47" class="st4" width="24.96" height="39.31"/>
					</g>
				</g>
			</g>
			<g>
				<g class="st2">
					<g>
						<rect x="1869.76" y="1209.79" class="st4" width="24.96" height="39.31"/>
					</g>
				</g>
				<g class="st2">
					<g>
						<rect x="1924.06" y="1209.79" class="st4" width="24.96" height="39.31"/>
					</g>
				</g>
				<g class="st2">
					<g>
						<rect x="1978.36" y="1209.79" class="st4" width="24.96" height="39.31"/>
					</g>
				</g>
				<g class="st2">
					<g>
						<rect x="2032.66" y="1209.79" class="st4" width="24.96" height="39.31"/>
					</g>
				</g>
				<g class="st2">
					<g>
						<rect x="2086.96" y="1209.79" class="st4" width="24.96" height="39.31"/>
					</g>
				</g>
			</g>
			<g>
				<g class="st2">
					<g>
						<rect x="1869.76" y="1279.11" class="st4" width="24.96" height="39.31"/>
					</g>
				</g>
				<g class="st2">
					<g>
						<rect x="1924.06" y="1279.11" class="st4" width="24.96" height="39.31"/>
					</g>
				</g>
				<g class="st2">
					<g>
						<rect x="1978.36" y="1279.11" class="st4" width="24.96" height="39.31"/>
					</g>
				</g>
				<g class="st2">
					<g>
						<rect x="2032.66" y="1279.11" class="st4" width="24.96" height="39.31"/>
					</g>
				</g>
				<g class="st2">
					<g>
						<rect x="2086.96" y="1279.11" class="st4" width="24.96" height="39.31"/>
					</g>
				</g>
			</g>
			<g>
				<g class="st2">
					<g>
						<rect x="1869.76" y="1348.43" class="st4" width="24.96" height="39.31"/>
					</g>
				</g>
				<g class="st2">
					<g>
						<rect x="1924.06" y="1348.43" class="st4" width="24.96" height="39.31"/>
					</g>
				</g>
				<g class="st2">
					<g>
						<rect x="1978.36" y="1348.43" class="st4" width="24.96" height="39.31"/>
					</g>
				</g>
				<g class="st2">
					<g>
						<rect x="2032.66" y="1348.43" class="st4" width="24.96" height="39.31"/>
					</g>
				</g>
				<g class="st2">
					<g>
						<rect x="2086.96" y="1348.43" class="st4" width="24.96" height="39.31"/>
					</g>
				</g>
			</g>
			<g>
				<g class="st2">
					<g>
						<rect x="1869.76" y="1417.75" class="st4" width="24.96" height="39.31"/>
					</g>
				</g>
				<g class="st2">
					<g>
						<rect x="1924.06" y="1417.75" class="st4" width="24.96" height="39.31"/>
					</g>
				</g>
				<g class="st2">
					<g>
						<rect x="1978.36" y="1417.75" class="st4" width="24.96" height="39.31"/>
					</g>
				</g>
				<g class="st2">
					<g>
						<rect x="2032.66" y="1417.75" class="st4" width="24.96" height="39.31"/>
					</g>
				</g>
				<g class="st2">
					<g>
						<rect x="2086.96" y="1417.75" class="st4" width="24.96" height="39.31"/>
					</g>
				</g>
			</g>
			<g>
				<g class="st2">
					<g>
						<rect x="1869.76" y="1491.53" class="st4" width="24.96" height="39.31"/>
					</g>
				</g>
				<g class="st2">
					<g>
						<rect x="1924.06" y="1491.53" class="st4" width="24.96" height="39.31"/>
					</g>
				</g>
				<g class="st2">
					<g>
						<rect x="1978.36" y="1491.53" class="st4" width="24.96" height="39.31"/>
					</g>
				</g>
				<g class="st2">
					<g>
						<rect x="2032.66" y="1491.53" class="st4" width="24.96" height="39.31"/>
					</g>
				</g>
				<g class="st2">
					<g>
						<rect x="2086.96" y="1491.53" class="st4" width="24.96" height="39.31"/>
					</g>
				</g>
			</g>
			<g>
				<g class="st2">
					<g>
						<rect x="1869.76" y="1565.31" class="st4" width="24.96" height="39.31"/>
					</g>
				</g>
				<g class="st2">
					<g>
						<rect x="1924.06" y="1565.31" class="st4" width="24.96" height="39.31"/>
					</g>
				</g>
				<g class="st2">
					<g>
						<rect x="1978.36" y="1565.31" class="st4" width="24.96" height="39.31"/>
					</g>
				</g>
				<g class="st2">
					<g>
						<rect x="2032.66" y="1565.31" class="st4" width="24.96" height="39.31"/>
					</g>
				</g>
				<g class="st2">
					<g>
						<rect x="2086.96" y="1565.31" class="st4" width="24.96" height="39.31"/>
					</g>
				</g>
			</g>
			<g>
				<g class="st2">
					<g>
						<rect x="1869.76" y="1639.09" class="st4" width="24.96" height="39.31"/>
					</g>
				</g>
				<g class="st2">
					<g>
						<rect x="1924.06" y="1639.09" class="st4" width="24.96" height="39.31"/>
					</g>
				</g>
				<g class="st2">
					<g>
						<rect x="1978.36" y="1639.09" class="st4" width="24.96" height="39.31"/>
					</g>
				</g>
				<g class="st2">
					<g>
						<rect x="2032.66" y="1639.09" class="st4" width="24.96" height="39.31"/>
					</g>
				</g>
				<g class="st2">
					<g>
						<rect x="2086.96" y="1639.09" class="st4" width="24.96" height="39.31"/>
					</g>
				</g>
			</g>
			<g>
				<g class="st2">
					<g>
						<rect x="1869.76" y="1712.87" class="st4" width="24.96" height="39.31"/>
					</g>
				</g>
				<g class="st2">
					<g>
						<rect x="1924.06" y="1712.87" class="st4" width="24.96" height="39.31"/>
					</g>
				</g>
				<g class="st2">
					<g>
						<rect x="1978.36" y="1712.87" class="st4" width="24.96" height="39.31"/>
					</g>
				</g>
				<g class="st2">
					<g>
						<rect x="2032.66" y="1712.87" class="st4" width="24.96" height="39.31"/>
					</g>
				</g>
				<g class="st2">
					<g>
						<rect x="2086.96" y="1712.87" class="st4" width="24.96" height="39.31"/>
					</g>
				</g>
			</g>
			<g>
				<g class="st2">
					<g>
						<rect x="1869.76" y="1786.65" class="st4" width="24.96" height="39.31"/>
					</g>
				</g>
				<g class="st2">
					<g>
						<rect x="1924.06" y="1786.65" class="st4" width="24.96" height="39.31"/>
					</g>
				</g>
				<g class="st2">
					<g>
						<rect x="1978.36" y="1786.65" class="st4" width="24.96" height="39.31"/>
					</g>
				</g>
				<g class="st2">
					<g>
						<rect x="2032.66" y="1786.65" class="st4" width="24.96" height="39.31"/>
					</g>
				</g>
				<g class="st2">
					<g>
						<rect x="2086.96" y="1786.65" class="st4" width="24.96" height="39.31"/>
					</g>
				</g>
			</g>
			<g class="st2">
				<g>
					<rect x="1907.79" y="1046.27" class="st4" width="24.96" height="39.31"/>
				</g>
			</g>
			<g class="st2">
				<g>
					<rect x="1953.32" y="1046.27" class="st4" width="24.96" height="39.31"/>
				</g>
			</g>
			<g class="st2">
				<g>
					<rect x="1998.85" y="1046.27" class="st4" width="24.96" height="39.31"/>
				</g>
			</g>
			<g class="st2">
				<g>
					<rect x="1952.71" y="973.49" class="st4" width="24.96" height="39.31"/>
				</g>
			</g>
			<g class="st2">
				<g>
					<rect x="1998.85" y="973.49" class="st4" width="24.96" height="39.31"/>
				</g>
			</g>
			<g class="st2">
				<g>
					<rect x="1978.36" y="907.23" class="st4" width="24.96" height="39.31"/>
				</g>
			</g>
			<g class="st2">
				<g>
					<rect x="2044.38" y="1046.27" class="st4" width="24.96" height="39.31"/>
				</g>
			</g>
		</g>
	</g>
	<g>
		<g>
			<g>
				<g>
					<g>
						<g>
							<g>
								<path class="st7" d="M1485.21,646.84c0,0,148.95-79.6,310.09,59.71C1795.31,706.55,1567.02,814.44,1485.21,646.84z"/>
							</g>
						</g>
					</g>
				</g>
			</g>
		</g>
		<g>
			<g>
				<g>
					<g>
						<g>
							<g>
								<path class="st8" d="M1397.59,634.8c0,0,96.14-274.49,462.8-285.58C1860.39,349.22,1696.61,752.02,1397.59,634.8z"/>
							</g>
						</g>
					</g>
				</g>
			</g>
		</g>
	</g>
	<g>
		<g>
			<g>
				<path class="st9" d="M2630.98,461.41c-0.14-2.44-1.09-4.9-3.07-7.01c-4.31-4.59-11.67-8.34-24.04-9.2c0,0,4.26-76.7-53.67-81.78
					c-66.44-5.83-67.25,69.52-67.25,69.52s-30.2-28.67-51.98,7.68c0,0-37.64-21.76-56.63,18.43c-0.37,0.78-0.56,1.57-0.61,2.36
					H2630.98z"/>
			</g>
		</g>
	</g>
	<g>
		<g>
			<g>
				<path class="st9" d="M2008.75,644.58c0.16-2.78,1.24-5.59,3.49-7.99c4.91-5.24,13.29-9.5,27.39-10.49c0,0-4.85-87.4,61.16-93.19
					c75.71-6.64,76.63,79.22,76.63,79.22s34.41-32.67,59.23,8.75c0,0,42.89-24.79,64.53,21c0.42,0.89,0.64,1.79,0.69,2.69H2008.75z"
					/>
			</g>
		</g>
	</g>
	<g>
		<g>
			<g>
				<g>
					<g>
						<path class="st9" d="M2689.71,678.63c-20.09-1.15-67.2-3.16-108.16,0.29c-16.94,1.43-31.57-12.11-31.19-29.1
							c0.16-6.96,2.65-15.05,9.11-24.22c24.86-35.31,68.09-1.59,67.67,16.34c0,0,8.74-26.99,35.28-22.27
							c26.54,4.73,17.15,43.98,17.15,43.98s8.56-1.81,14.5,2.24C2699.91,669.88,2696.77,679.04,2689.71,678.63z"/>
					</g>
				</g>
			</g>
		</g>
	</g>
	<g>
		<g>
			<g>
				<path class="st10" d="M2445.18,911.66c-0.19-7.78-1.18-15.44-2.91-22.9c-2.99-12.9-8.19-25.15-15.27-36.19
					c-2.68-4.2-5.64-8.22-8.86-12.04c-19.14-22.74-47.25-38.1-80.39-39.47c-1.17-0.05-2.35-0.08-3.52-0.1
					c-1.18-0.01-2.35-0.01-3.52,0.01c-62.83,1.03-108.85,52.71-110.29,110.69c-0.37,14.99,2.24,30.4,8.31,45.47l5.8,11.51l4.75,9.42
					l62.93,124.9l5.57,11.05l10.04,19.94l7.63,15.14l4.31,8.55l1.99-3.72l1.75-3.27l0.83-1.56l8.11-15.14l10.68-19.94l9.91-18.5
					l71.99-134.37l0.75-1.39C2442.62,943.88,2445.57,927.55,2445.18,911.66z M2385.15,916.85c-0.13,10.06-3.08,19.41-8.1,27.33
					c-3.67,5.8-8.44,10.82-14.03,14.77c-1.09,0.77-2.2,1.5-3.34,2.19c-8.05,4.83-17.5,7.55-27.57,7.43c-0.13,0-0.25-0.01-0.38-0.01
					c-28.75-0.57-51.7-24.23-51.33-53.02c0.36-28.92,24.11-52.08,53.03-51.72c18.63,0.24,34.87,10.18,43.97,24.95
					c4.17,6.77,6.85,14.56,7.55,22.9C2385.11,913.36,2385.17,915.09,2385.15,916.85z"/>
			</g>
		</g>
		<g>
			<g>
				<path class="st9" d="M2384.13,888.76c-2.55-4.77-5.8-9.21-9.69-13.2c-10.85-11.12-25.39-17.36-40.93-17.56
					c-32.06-0.43-58.51,25.37-58.92,57.46c-0.4,31.98,25.2,58.34,57.15,58.91c0.11,0.01,0.21,0.01,0.31,0.01
					c0.25,0.01,0.5,0.01,0.76,0.01c10.82,0,21.2-2.93,30.22-8.45c2.34-1.43,4.58-3.03,6.73-4.79c1.26-1.03,2.47-2.13,3.66-3.28
					c1.29-1.25,2.5-2.56,3.65-3.9c8.83-10.32,13.73-23.28,13.91-37.03c0.02-1.77-0.04-3.52-0.17-5.26
					C2390.19,903.57,2387.91,895.8,2384.13,888.76z M2377.05,930.63c-2.29,7.08-6.29,13.54-11.77,18.89
					c-0.74,0.71-1.49,1.4-2.26,2.06c-5.08,4.36-10.95,7.5-17.26,9.33c-4.36,1.26-8.92,1.89-13.57,1.84c-0.16,0-0.31-0.01-0.46-0.01
					c-25.46-0.57-45.84-21.62-45.51-47.13c0.16-12.43,5.15-24.07,14.05-32.75c8.76-8.54,20.27-13.22,32.49-13.22
					c0.21,0,0.4,0,0.61,0.01c12.43,0.16,24.07,5.14,32.75,14.05c1.56,1.61,3,3.3,4.3,5.08c2.9,3.97,5.13,8.33,6.64,12.95
					c1.05,3.21,1.74,6.54,2.07,9.95c0.16,1.69,0.23,3.39,0.21,5.11C2379.28,921.55,2378.5,926.21,2377.05,930.63z"/>
			</g>
			<g>
				<path class="st9" d="M2450.92,911.66c-0.06-2.47-0.18-4.93-0.4-7.39c-0.25-2.99-0.61-5.97-1.1-8.93
					c-0.35-2.21-0.76-4.4-1.24-6.58c-2.93-13.42-8.17-26.41-15.68-38.37c-1.75-2.78-3.58-5.47-5.51-8.05
					c-2.73-3.67-5.64-7.16-8.71-10.44c-20.8-22.26-49.07-35.34-80.3-36.65c-1.22-0.05-2.45-0.08-3.69-0.1
					c-1.23-0.01-2.46-0.01-3.68,0.01c-39.12,0.64-74.06,19.86-95.87,52.74c-12.76,19.23-19.54,41.37-20.06,63.76
					c-0.38,16.09,2.47,32.3,8.65,47.65l77.92,154.7l0.94,1.87l9.09,18.07l7.63,15.14l10.66,21.16l2.16-4.02l1.75-3.27l7.43-13.86
					l8.11-15.14l10.69-19.94l3.32-6.2l77.86-145.32l0.21-0.44c0.13-0.3,0.26-0.61,0.39-0.92
					C2448.19,945.28,2451.31,928.41,2450.92,911.66z M2430.52,957.21l-2.1,3.92l-65.39,122.05l-16.51,30.83l-10.69,19.94l-2.34,4.37
					l-1.75,3.27l-1.84,3.43l-5.58-11.07l-10.04-19.94l-12.08-23.97l-32.61-64.73l-4.42-8.78l-19.38-38.46l-11.27-22.36l-0.49-0.97
					c-5.56-13.88-8.1-28.53-7.72-43.07c0.52-20.13,6.65-40.03,18.12-57.33c19.66-29.64,51.14-46.96,86.38-47.54
					c1.11-0.01,2.23-0.02,3.35,0c1.12,0.01,2.23,0.04,3.35,0.08c32.53,1.35,61.5,16.92,80.63,43.05c1.58,2.15,3.08,4.36,4.52,6.65
					c1.56,2.48,3.01,5.01,4.34,7.57c4.11,7.87,7.19,16.14,9.25,24.62c1.82,7.52,2.84,15.19,3.04,22.9
					C2439.68,927.09,2436.78,942.63,2430.52,957.21z"/>
			</g>
			<g>
				<g>
					<path class="st11" d="M2332.8,975.48c-0.26,0-0.52,0-0.78-0.01c-0.11,0-0.23,0-0.36-0.01l0.16-2.21c0.08,0.01,0.15,0,0.23,0
						c0.27,0.01,0.51,0.02,0.76,0.01c10.53,0,20.78-2.87,29.65-8.29c2.29-1.4,4.51-2.98,6.6-4.7c1.21-0.99,2.41-2.07,3.59-3.22
						c1.22-1.19,2.43-2.48,3.58-3.83c8.75-10.23,13.47-22.79,13.65-36.33c0.02-1.73-0.03-3.47-0.17-5.16
						c-0.6-7.94-2.8-15.49-6.54-22.46c-2.52-4.71-5.72-9.07-9.51-12.95l1.58-1.54c3.93,4.03,7.25,8.56,9.87,13.45
						c3.89,7.24,6.18,15.1,6.8,23.34c0.14,1.76,0.19,3.56,0.17,5.36c-0.18,14.06-5.08,27.11-14.18,37.73
						c-1.19,1.4-2.45,2.74-3.72,3.98c-1.22,1.19-2.47,2.32-3.73,3.34c-2.17,1.79-4.48,3.43-6.85,4.88
						C2354.38,972.5,2343.73,975.48,2332.8,975.48z M2332.7,963.85c-0.17,0-0.35,0-0.52,0c0,0,0,0,0,0c-0.16,0-0.34-0.01-0.5-0.02
						c-25.99-0.58-46.9-22.22-46.56-48.25c0.16-12.73,5.27-24.63,14.39-33.53c8.95-8.73,20.77-13.54,33.26-13.54
						c0.22,0,0.43,0,0.65,0.01c12.71,0.16,24.62,5.27,33.5,14.39c1.59,1.63,3.07,3.38,4.4,5.2l-1.78,1.31
						c-1.27-1.73-2.68-3.4-4.2-4.96c-8.47-8.69-19.83-13.57-31.97-13.72c-0.22-0.01-0.41-0.02-0.59-0.01
						c-11.91,0-23.18,4.58-31.72,12.91c-8.69,8.48-13.57,19.83-13.72,31.97c-0.32,24.82,19.62,45.46,44.43,46.01
						c0.16,0.01,0.3,0.01,0.43,0.01c4.51,0.06,8.98-0.56,13.26-1.8c6.23-1.8,11.9-4.87,16.85-9.1c0.73-0.63,1.46-1.28,2.21-2.01
						c5.28-5.15,9.26-11.53,11.49-18.44l2.1,0.68c-2.34,7.25-6.51,13.94-12.05,19.34c-0.79,0.76-1.54,1.45-2.31,2.11
						c-5.19,4.44-11.13,7.66-17.67,9.55C2341.74,963.22,2337.24,963.85,2332.7,963.85z"/>
				</g>
				<g>
					<path class="st11" d="M2329.54,1172.64l-29.28-58.14l-77.93-154.7c-6.22-15.45-9.16-31.63-8.77-48.17
						c0.54-22.94,7.54-45.19,20.25-64.34c22.02-33.19,57.29-52.59,96.77-53.24c1.23-0.02,2.48-0.02,3.72-0.01
						c1.25,0.01,2.49,0.05,3.72,0.1c31.2,1.3,59.98,14.44,81.06,37c3.08,3.3,6.04,6.84,8.78,10.53c1.9,2.55,3.77,5.29,5.56,8.13
						c7.5,11.95,12.82,24.97,15.82,38.72c0.46,2.1,0.89,4.33,1.26,6.64c0.47,2.91,0.84,5.94,1.11,9.01c0.21,2.4,0.34,4.91,0.4,7.46
						l0,0c0.4,17.25-2.8,34.04-9.52,49.93c-0.13,0.31-0.26,0.62-0.4,0.93l-0.23,0.47L2329.54,1172.64z M2332.64,796.24
						c-0.67,0-1.34,0-2.01,0.02c-38.75,0.63-73.36,19.67-94.97,52.25c-12.48,18.81-19.35,40.65-19.88,63.17
						c-0.39,16.24,2.5,32.13,8.57,47.21l105.25,208.94l32.44-60.55l77.86-145.32l0.19-0.4c0.11-0.26,0.24-0.56,0.36-0.86
						c6.6-15.61,9.74-32.1,9.35-49.03l0,0c-0.06-2.5-0.19-4.97-0.39-7.32c-0.26-3.02-0.62-6-1.09-8.85
						c-0.37-2.3-0.77-4.43-1.23-6.52c-2.95-13.5-8.17-26.29-15.54-38.02c-1.75-2.79-3.59-5.47-5.46-7.98
						c-2.7-3.63-5.6-7.11-8.63-10.34c-20.68-22.13-48.93-35.02-79.54-36.3c-1.21-0.05-2.43-0.08-3.66-0.1
						C2333.74,796.25,2333.19,796.24,2332.64,796.24z"/>
				</g>
			</g>
		</g>
	</g>
	<g>
		<g>
			<g>
				<path class="st12" d="M1520.49,440.4c-0.01-0.43-0.03-0.86-0.06-1.28c-0.84-14.41-12.12-25.92-26.23-26.78
					c-0.42-0.03-0.84-0.05-1.26-0.06c-0.14,0-0.27-0.02-0.41-0.02H869.21c-0.14,0-0.28,0.02-0.41,0.02
					c-0.42,0.01-0.84,0.03-1.26,0.06c-14.11,0.85-25.39,12.36-26.23,26.78c-0.03,0.43-0.05,0.85-0.06,1.28
					c0,0.14-0.02,0.28-0.02,0.42v1323.71c0,13.77,10.93,24.92,24.4,24.92h630.49c13.47,0,24.4-11.15,24.4-24.92V440.83
					C1520.51,440.68,1520.49,440.54,1520.49,440.4z M841.67,510.76v-39.99h40.73c1.18,0.54,2.47,0.85,3.83,0.85
					c1.37,0,2.68-0.3,3.85-0.85h21.32c1.17,0.54,2.47,0.85,3.85,0.85c1.37,0,2.68-0.3,3.85-0.85h21.32
					c1.17,0.54,2.47,0.85,3.85,0.85s2.68-0.3,3.85-0.85h449.44v0.85h73.7v-0.85h49.03v39.99H841.67z"/>
			</g>
		</g>
		<g>
			<g>
				<g>
					<g>
						<path class="st13" d="M1479.56,383.53H882.18c-38.44,0-69.61,31.82-69.61,71.1v1308.82c0,39.27,31.17,71.1,69.61,71.1h597.38
							c38.45,0,69.61-31.82,69.61-71.1V454.62C1549.17,415.35,1518.01,383.53,1479.56,383.53z M1520.51,1750.84
							c0,21.34-16.94,38.62-37.82,38.62H879.06c-20.89,0-37.83-17.29-37.83-38.62V455.35c0-23.81,18.89-43.09,42.19-43.09h594.9
							c23.3,0,42.19,19.28,42.19,43.09V1750.84z"/>
					</g>
				</g>
			</g>
		</g>
		<g>
			<g>
				<path class="st12" d="M1520.52,510.63v1253.91c0,13.76-10.93,24.92-24.41,24.92H865.63c-13.48,0-24.4-11.16-24.4-24.92V510.63
					h0.44v0.13h678.6v-0.13H1520.52z"/>
			</g>
			<g>
				<g>
					<path class="st9" d="M1016.91,510.76h-23.66l0.1,219.3H841.23v24.17h152.13l0.07,162.18h-152.2v24.17h152.21l0.11,249.1H841.23
						v24.17h152.34l0.11,234.27H841.23v24.17H993.7l0.15,317.18h23.66l-0.11-239.8h310.23v99.43h-128.28v140.37h23.66v-116.2h297.5
						v-24.17h-169.23v-99.43h168.75v-24.17h-326.93l-0.1-111.51h254.18l0.1-322.26h73.23v-24.17h-73.23l0.05-126.99h73.18v-24.17
						h-73.18l0.05-162.18h73.13v-24.17h-73.12V633.8h73.12v-24.17h-503.56L1016.91,510.76z M1017.02,754.22h255.81v87.99
						c-37.59,5.36-67.4,35.81-72.64,74.2H1017.1L1017.02,754.22z M1284.66,865.53c33.99,0,61.65,28.25,61.65,62.97
						c0,34.71-27.66,62.97-61.65,62.97s-61.65-28.25-61.65-62.97C1223.01,893.78,1250.67,865.53,1284.66,865.53z M1017.11,940.58
						h183.08c5.24,38.39,35.06,68.84,72.64,74.2v52.79h-255.66L1017.11,940.58z M1017.38,1525.49l-0.2-433.76h151.87l0.4,433.76
						H1017.38z M1423.52,1389.82h-230.54l-0.27-298.09h230.91L1423.52,1389.82z M1423.62,1067.56h-127.13v-52.79
						c37.59-5.36,67.4-35.81,72.64-74.2h54.54L1423.62,1067.56z M1423.67,916.41h-54.54c-5.24-38.39-35.06-68.84-72.64-74.2v-87.99
						h127.23L1423.67,916.41z M1256.43,633.8h167.31v96.25h-167.31V633.8z M1232.77,730.06h-215.75l-0.05-96.25h215.8V730.06z"/>
				</g>
			</g>
			<g>
				<g>
					<path class="st14" d="M1342.57,1666.9h-112.09v-10.18h102.12v-111.94h-156.92v-147.55h254.06v-310.37h-150.69v-76.48
						c-25.58-1.59-46.43-15.53-60.52-40.56c-8.11-14.4-11.86-28.66-13.34-35.61h-205.11V763.76h9.96v160.28h203.56l0.64,4.33
						c0.03,0.18,2.85,18.59,13.08,36.63c13.3,23.46,32.38,35.36,56.72,35.36h4.98v76.32h150.69v330.73h-254.06v127.2h156.92V1666.9z
						"/>
				</g>
			</g>
			<g>
				<rect x="1038.69" y="772.67" class="st12" width="212.96" height="41.98"/>
			</g>
			<g>
				<rect x="1267.85" y="1141.56" class="st12" width="46.08" height="41.98"/>
			</g>
			<g>
				<rect x="1457.15" y="1119.93" class="st12" width="46.08" height="41.98"/>
			</g>
			<g>
				<rect x="1301.47" y="1258.58" class="st12" width="46.08" height="41.98"/>
			</g>
			<g>
				<rect x="1368.73" y="1580.4" class="st12" width="46.08" height="41.98"/>
			</g>
			<g>
				<rect x="1462.13" y="1580.4" class="st12" width="46.08" height="41.98"/>
			</g>
			<g>
				<rect x="1247.92" y="1696.16" class="st12" width="257.8" height="41.98"/>
			</g>
			<g>
				<rect x="850.64" y="1030.89" class="st12" width="46.08" height="41.98"/>
			</g>
			<g>
				<rect x="1047.41" y="982.55" class="st12" width="46.08" height="41.98"/>
			</g>
			<g>
				<rect x="850.64" y="1099.58" class="st12" width="46.08" height="41.98"/>
			</g>
			<g>
				<rect x="1145.8" y="982.55" class="st12" width="46.08" height="41.98"/>
			</g>
			<g>
				<rect x="1360.01" y="1010.54" class="st12" width="46.08" height="41.98"/>
			</g>
			<g>
				<rect x="1047.41" y="845.17" class="st12" width="46.08" height="41.98"/>
			</g>
			<g>
				<rect x="1134.59" y="845.17" class="st12" width="46.08" height="41.98"/>
			</g>
			<g>
				<rect x="1360.01" y="777.76" class="st12" width="46.08" height="41.98"/>
			</g>
			<g>
				<rect x="1169.46" y="660.73" class="st12" width="46.08" height="41.98"/>
			</g>
			<g>
				<rect x="860.6" y="772.67" class="st12" width="118.31" height="41.98"/>
			</g>
			<g>
				<rect x="860.6" y="859.17" class="st12" width="118.31" height="41.98"/>
			</g>
			<g>
				<rect x="850.64" y="962.2" class="st12" width="118.31" height="41.98"/>
			</g>
			<g>
				<rect x="925.36" y="524.62" class="st12" width="46.08" height="178.08"/>
			</g>
			<g>
				<rect x="850.64" y="524.62" class="st12" width="46.08" height="178.08"/>
			</g>
			<g>
				<rect x="1323.89" y="660.73" class="st12" width="46.08" height="41.98"/>
			</g>
			<g>
				<rect x="1039.94" y="544.98" class="st12" width="480.73" height="41.98"/>
			</g>
			<g>
				<rect x="1102.21" y="660.73" class="st12" width="46.08" height="41.98"/>
			</g>
			<g>
				<rect x="1034.96" y="660.73" class="st12" width="46.08" height="41.98"/>
			</g>
			<g>
				<rect x="1208.07" y="1427.76" class="st12" width="99.63" height="41.98"/>
			</g>
			<g>
				<rect x="1102.21" y="1119.93" class="st12" width="46.08" height="146.28"/>
			</g>
			<g>
				<rect x="931.59" y="1502.81" class="st12" width="46.08" height="146.28"/>
			</g>
			<g>
				<rect x="1034.96" y="1566.41" class="st12" width="46.08" height="146.28"/>
			</g>
			<g>
				<rect x="1134.59" y="1633.83" class="st12" width="46.08" height="146.28"/>
			</g>
			<g>
				
					<rect x="1198.86" y="1522.5" transform="matrix(-1.836970e-16 1 -1 -1.836970e-16 2832.6877 387.906)" class="st12" width="47.06" height="175.6"/>
			</g>
			<g>
				<rect x="936.57" y="1674.53" class="st12" width="46.08" height="63.6"/>
			</g>
			<g>
				<rect x="1102.21" y="1318.37" class="st12" width="46.08" height="41.98"/>
			</g>
			<g>
				<rect x="1235.47" y="1333.63" class="st12" width="132.01" height="41.98"/>
			</g>
			<g>
				<rect x="1367.48" y="1114.84" class="st12" width="46.08" height="260.77"/>
			</g>
			<g>
				<rect x="1325.14" y="1427.76" class="st12" width="132.01" height="41.98"/>
			</g>
			<g>
				<rect x="1457.15" y="1208.97" class="st12" width="46.08" height="260.77"/>
			</g>
			<g>
				<rect x="921.62" y="1236.96" class="st12" width="46.08" height="41.98"/>
			</g>
			<g>
				<rect x="850.64" y="1236.96" class="st12" width="46.08" height="41.98"/>
			</g>
			<g>
				<rect x="850.64" y="1385.78" class="st12" width="46.08" height="41.98"/>
			</g>
			<g>
				<rect x="1102.21" y="1398.5" class="st12" width="46.08" height="41.98"/>
			</g>
			<g>
				<path class="st10" d="M974.38,688.84l29.88,60.58l31.36-59.79c9.29-21.93-5.62-46.95-28.99-47.94
					c-0.35-0.01-0.69-0.02-1.04-0.03c-0.35,0-0.7,0-1.04,0C981.16,642.04,965.64,666.67,974.38,688.84z M1005.36,660.64
					c8.56,0.11,15.41,7.28,15.3,16.02c-0.11,8.74-7.13,15.73-15.69,15.62c-8.56-0.11-15.41-7.28-15.3-16.02
					C989.78,667.53,996.8,660.53,1005.36,660.64z"/>
			</g>
			<g>
				<path class="st10" d="M1183.61,1613.6l29.88,60.58l31.36-59.79c9.29-21.93-5.62-46.95-28.99-47.94
					c-0.35-0.01-0.69-0.02-1.04-0.03c-0.35,0-0.7,0-1.04,0C1190.39,1566.81,1174.87,1591.44,1183.61,1613.6z M1214.58,1585.4
					c8.56,0.11,15.41,7.28,15.3,16.02c-0.11,8.74-7.13,15.73-15.69,15.62c-8.56-0.11-15.41-7.28-15.3-16.02
					C1199,1592.29,1206.03,1585.29,1214.58,1585.4z"/>
			</g>
		</g>
		<g>
			<g>
				<path class="st15" d="M1491.87,412.26H869.62c-15.68,0-28.39,12.98-28.39,28.99v69.51h0.44h678.35h0.25v-69.51
					C1520.26,425.23,1507.55,412.26,1491.87,412.26z"/>
			</g>
		</g>
		<g class="st16">
			<g>
				<g>
					<g>
						<path class="st9" d="M896.77,462.04c0,3.89-2.31,7.24-5.65,8.73c-1.19,0.54-2.53,0.85-3.93,0.85c-1.39,0-2.71-0.3-3.92-0.85
							c-3.33-1.48-5.66-4.84-5.66-8.73c0-5.29,4.3-9.58,9.58-9.58C892.48,452.47,896.77,456.75,896.77,462.04z"/>
					</g>
				</g>
			</g>
			<g>
				<g>
					<g>
						<path class="st9" d="M926.4,462.04c0,3.89-2.31,7.24-5.65,8.73c-1.19,0.54-2.53,0.85-3.93,0.85c-1.4,0-2.74-0.3-3.93-0.85
							c-3.33-1.49-5.65-4.84-5.65-8.73c0-5.29,4.29-9.58,9.58-9.58S926.4,456.75,926.4,462.04z"/>
					</g>
				</g>
			</g>
			<g>
				<g>
					<g>
						<path class="st9" d="M956.03,462.04c0,3.89-2.31,7.24-5.65,8.73c-1.19,0.54-2.53,0.85-3.93,0.85c-1.4,0-2.74-0.3-3.93-0.85
							c-3.33-1.49-5.65-4.84-5.65-8.73c0-5.29,4.29-9.58,9.58-9.58C951.74,452.47,956.03,456.75,956.03,462.04z"/>
					</g>
				</g>
			</g>
			<g>
				<g>
					<g>
						<g>
							<path class="st9" d="M1409.42,444.81v6.84h-3.88v11.73h3.88v8.24h75.28v-26.81H1409.42z M1412,447h70.12v22.43H1412V447z"/>
						</g>
					</g>
				</g>
			</g>
			<g>
				<g>
					<g>
						<g>
							<rect x="1470.42" y="450.49" class="st9" width="7.44" height="15.33"/>
						</g>
					</g>
				</g>
			</g>
			<g>
				<g>
					<g>
						<g>
							<rect x="1457.94" y="450.49" class="st9" width="7.44" height="15.33"/>
						</g>
					</g>
				</g>
			</g>
			<g>
				<g>
					<g>
						<g>
							<rect x="1445.13" y="450.49" class="st9" width="7.44" height="15.33"/>
						</g>
					</g>
				</g>
			</g>
		</g>
	</g>
	<g>
		<g>
			<g>
				<g>
					<g>
						<g>
							<g>
								<g>
									<g>
										<g>
											<g>
												<g>
													<g>
														<g>
															<g>
																<polygon class="st17" points="863.56,1749.45 801.9,1757.15 802.79,1815.53 864.69,1814.68 																"/>
															</g>
														</g>
													</g>
												</g>
											</g>
										</g>
									</g>
								</g>
							</g>
						</g>
					</g>
				</g>
			</g>
			<g>
				<g>
					<g>
						<g>
							<g>
								<path class="st18" d="M926.43,1834.09c3.79,0,6.78-3.43,6.03-7.36c-0.56-2.92-3.28-4.93-6.26-4.93h-8.62l-40.04-23.84
									l-21.89,23.84h-53.99c-1.35,0-2.44,1.09-2.44,2.44v8.18c0,0.92,0.75,1.67,1.67,1.67H926.43z"/>
							</g>
						</g>
					</g>
				</g>
				<g>
					<g>
						<g>
							<g>
								<path class="st15" d="M910.32,1810.93l-45.84-20.33c-18.46,17.98-39.4,3.12-39.4,3.12c-13.84-6.25-22.94,5.99-22.94,5.99
									v22.16h124.14C922.89,1815.13,910.32,1810.93,910.32,1810.93z"/>
							</g>
						</g>
					</g>
				</g>
				<g>
					<g>
						<g>
							<g>
								<g>
									<g>
										<rect x="801.69" y="1799.71" width="0.92" height="22.05"/>
									</g>
								</g>
							</g>
						</g>
					</g>
				</g>
				<g>
					<g>
						<g>
							<g>
								<g>
									<g>
										<path d="M846.56,1798.89c-0.11,0.01-10.93,1.53-21.22-5.55l-0.52,0.76c7.37,5.07,15.02,5.85,19.03,5.85
											c1.75,0,2.81-0.15,2.85-0.16L846.56,1798.89z"/>
									</g>
								</g>
							</g>
						</g>
					</g>
				</g>
				<g>
					<g>
						<g>
							<g>
								<g>
									<g>
										
											<rect x="810.17" y="1811.85" transform="matrix(0.5583 -0.8296 0.8296 0.5583 -1148.0585 1474.42)" width="0.92" height="7.06"/>
									</g>
								</g>
							</g>
						</g>
					</g>
				</g>
				<g>
					<g>
						<g>
							<g>
								<g>
									<g>
										
											<rect x="814.37" y="1810.73" transform="matrix(0.5595 -0.8289 0.8289 0.5595 -1144.7965 1474.6224)" width="0.92" height="7.06"/>
									</g>
								</g>
							</g>
						</g>
					</g>
				</g>
				<g>
					<g>
						<g>
							<g>
								<g>
									<g>
										<g>
											<g>
												<g>
													<g>
														<g>
															<g>
																<path d="M930.7,1833.03c1.48-1.26,2.33-3.09,2.33-5.04c0-3.64-2.96-6.6-6.6-6.6H802.31c-1.95,0-3.54,1.59-3.54,3.54
																	v6.13h0.92v-6.13c0-1.45,1.18-2.62,2.62-2.62h124.12c3.13,0,5.68,2.55,5.68,5.68c0,1.67-0.73,3.25-2.01,4.34
																	L930.7,1833.03z"/>
															</g>
														</g>
													</g>
												</g>
											</g>
										</g>
									</g>
								</g>
							</g>
						</g>
					</g>
				</g>
				<g>
					<g>
						<g>
							<g>
								<g>
									<g>
										<path d="M926.02,1822.04l0.83-0.39c-0.1-0.22-2.62-5.37-12-9.37c-9.22-3.93-49.77-21.92-50.18-22.1l-0.37,0.84
											c0.41,0.18,40.97,18.17,50.19,22.1C923.52,1816.97,925.99,1821.99,926.02,1822.04z"/>
									</g>
								</g>
							</g>
						</g>
					</g>
				</g>
			</g>
		</g>
		<g>
			<g>
				<g>
					<g>
						<g>
							<g>
								<g>
									<g>
										<g>
											<g>
												<g>
													<g>
														<g>
															<g>
																<polygon class="st17" points="755.29,1749.45 693.63,1757.15 694.52,1815.53 756.42,1814.68 																"/>
															</g>
														</g>
													</g>
												</g>
											</g>
										</g>
									</g>
								</g>
							</g>
						</g>
					</g>
				</g>
			</g>
			<g>
				<g>
					<g>
						<g>
							<g>
								<path class="st19" d="M818.16,1834.09c3.79,0,6.78-3.43,6.03-7.36c-0.56-2.92-3.28-4.93-6.25-4.93h-8.62l-40.04-23.84
									l-21.89,23.84H693.4c-1.35,0-2.44,1.09-2.44,2.44v8.18c0,0.92,0.75,1.67,1.67,1.67H818.16z"/>
							</g>
						</g>
					</g>
				</g>
				<g>
					<g>
						<g>
							<g>
								<path class="st15" d="M802.04,1810.93l-45.84-20.33c-18.46,17.98-39.4,3.12-39.4,3.12c-13.84-6.25-22.94,5.99-22.94,5.99
									v22.16h124.14C814.61,1815.13,802.04,1810.93,802.04,1810.93z"/>
							</g>
						</g>
					</g>
				</g>
				<g>
					<g>
						<g>
							<g>
								<g>
									<g>
										<rect x="693.41" y="1799.71" width="0.92" height="22.05"/>
									</g>
								</g>
							</g>
						</g>
					</g>
				</g>
				<g>
					<g>
						<g>
							<g>
								<g>
									<g>
										<path d="M738.29,1798.89c-0.11,0.01-10.93,1.53-21.22-5.55l-0.52,0.76c7.37,5.07,15.02,5.85,19.03,5.85
											c1.75,0,2.81-0.15,2.85-0.16L738.29,1798.89z"/>
									</g>
								</g>
							</g>
						</g>
					</g>
				</g>
				<g>
					<g>
						<g>
							<g>
								<g>
									<g>
										
											<rect x="701.9" y="1811.85" transform="matrix(0.5585 -0.8295 0.8295 0.5585 -1195.7679 1384.0765)" width="0.92" height="7.06"/>
									</g>
								</g>
							</g>
						</g>
					</g>
				</g>
				<g>
					<g>
						<g>
							<g>
								<g>
									<g>
										
											<rect x="706.1" y="1810.73" transform="matrix(0.5594 -0.8289 0.8289 0.5594 -1192.5337 1385.0503)" width="0.92" height="7.06"/>
									</g>
								</g>
							</g>
						</g>
					</g>
				</g>
				<g>
					<g>
						<g>
							<g>
								<g>
									<g>
										<g>
											<g>
												<g>
													<g>
														<g>
															<g>
																<path d="M822.43,1833.03c1.48-1.26,2.33-3.09,2.33-5.04c0-3.64-2.96-6.6-6.6-6.6H694.04
																	c-1.95,0-3.54,1.59-3.54,3.54v6.13h0.92v-6.13c0-1.45,1.18-2.62,2.62-2.62h124.12c3.14,0,5.68,2.55,5.68,5.68
																	c0,1.67-0.73,3.25-2.01,4.34L822.43,1833.03z"/>
															</g>
														</g>
													</g>
												</g>
											</g>
										</g>
									</g>
								</g>
							</g>
						</g>
					</g>
				</g>
				<g>
					<g>
						<g>
							<g>
								<g>
									<g>
										<path d="M817.74,1822.04l0.83-0.39c-0.1-0.22-2.62-5.37-12-9.37c-9.22-3.93-49.77-21.92-50.18-22.1l-0.37,0.84
											c0.41,0.18,40.97,18.17,50.19,22.1C815.24,1816.97,817.72,1821.99,817.74,1822.04z"/>
									</g>
								</g>
							</g>
						</g>
					</g>
				</g>
			</g>
		</g>
		<g>
			<g>
				<g>
					<g>
						<g>
							<g>
								<g>
									<path class="st20" d="M812.83,1767.38c11.86-0.03,28.36-1.45,46.64-7.03c8.84-2.7,14.97-10.73,15.12-19.97l7.97-491.02
										c0.02-1.19-0.06-2.39-0.24-3.56l-0.37-2.43c-2.05-13.37-15.93-21.42-28.55-16.57l-79.08,30.38
										c-8.44,3.24-13.89,11.46-13.59,20.49c2.14,63.05,11.47,309.7,31.07,471.08C793.1,1759.38,802.12,1767.4,812.83,1767.38z"/>
								</g>
							</g>
						</g>
					</g>
				</g>
			</g>
		</g>
		<g>
			<g>
				<g>
					<g>
						<g>
							<g>
								<g>
									<path class="st21" d="M698.99,1771.86c12.53,0.95,31.62,0.81,53.14-4.9c7.3-1.94,12.61-8.24,13.26-15.76l37.54-434.96
										l23.11-120.77l-152.25,69.48c0,0-5.38,303.3,8.65,490.38C683.1,1764.19,690.13,1771.18,698.99,1771.86z"/>
								</g>
							</g>
						</g>
					</g>
				</g>
			</g>
		</g>
		<g>
			<g>
				<g>
					<g>
						<g>
							<g>
								<g>
									<path class="st22" d="M683.57,1769.74L683.57,1769.74L683.57,1769.74z"/>
								</g>
							</g>
						</g>
					</g>
				</g>
			</g>
		</g>
		<g>
			<g>
				<g>
					<g>
						<g>
							<path class="st10" d="M896.01,1358.17c4.49-17.52-21.7-205.37-21.7-205.37l-224.68,15.61c1.32,12.12,8.58,191.86,28.75,206.7
								C698.55,1389.95,891.52,1375.69,896.01,1358.17z"/>
						</g>
					</g>
				</g>
			</g>
		</g>
		<g>
			<g>
				<g>
					<g>
						<g>
							<g>
								<g>
									<g>
										<path class="st10" d="M973.33,1132.39c0,0-103.2-48.61-105.8-48.66l24.98,73.42l58.34,14.91L973.33,1132.39z"/>
									</g>
								</g>
							</g>
						</g>
					</g>
				</g>
			</g>
		</g>
		<g>
			<g>
				<g>
					<g>
						<g>
							<g>
								<path class="st10" d="M771.1,894.64c0,0-66.87,0.14-92.3,2.78c-39.52,4.11-47.02,105.63-47.02,105.63
									c-2.31,67.52,2.52,160.19,24.96,191.09c33.92,46.7,76.1,41.22,76.1,41.22l194.79-15.25c0,0,11.78-65.94-0.35-90.95
									l-39.99-3.54l-30.61-159.25c0,0-6.29-54.97-79.6-70.51C779.86,897.26,771.1,894.64,771.1,894.64z"/>
							</g>
						</g>
					</g>
				</g>
			</g>
		</g>
		<g>
			<g>
				<g>
					<g>
						<g>
							<g>
								<g>
									<g>
										<path class="st22" d="M736.4,1123.21c0.22,0.09,0.46,0.12,0.71,0.07c0.66-0.13,1.1-0.78,0.96-1.44
											c-0.17-0.87-17.52-87.77-24.29-142.31c-0.08-0.67-0.7-1.15-1.37-1.07c-0.67,0.08-1.15,0.7-1.07,1.37
											c6.79,54.63,24.15,141.62,24.32,142.49C735.76,1122.74,736.04,1123.06,736.4,1123.21z"/>
									</g>
								</g>
							</g>
						</g>
					</g>
				</g>
			</g>
		</g>
		<g>
			<g>
				<g>
					<g>
						<g>
							<g>
								<g>
									<g>
										<path class="st22" d="M855.88,1125.57c0.28-0.02,0.54-0.13,0.74-0.31c0.27-0.24,0.43-0.6,0.41-0.99
											c-0.06-1.01-5.85-101.14-11.73-134.38c-0.12-0.67-0.75-1.11-1.42-0.99c-0.66,0.12-1.11,0.75-0.99,1.42
											c5.85,33.1,11.64,133.09,11.7,134.1C854.62,1125.09,855.2,1125.61,855.88,1125.57z"/>
									</g>
								</g>
							</g>
						</g>
					</g>
				</g>
			</g>
		</g>
		<g>
			<g>
				<g>
					<g>
						<g>
							<g>
								<g>
									<g>
										<path class="st22" d="M871.17,1103.49c0.06,0.04,0.12,0.07,0.18,0.09c0.54,0.23,1.18,0.04,1.51-0.48l8.71-13.82
											l-0.09-0.48L857.9,966.18c-0.13-1.1-2.05-15.37-13.54-31.41c-10.77-15.04-32.36-34.45-74.05-41.44
											c-0.67-0.11-1.3,0.34-1.41,1.01c-0.11,0.67,0.34,1.3,1.01,1.41c40.79,6.85,61.87,25.72,72.38,40.34
											c11.39,15.85,13.17,30.28,13.18,30.43l0.01,0.09l23.49,122.21l-8.19,13C870.42,1102.38,870.6,1103.13,871.17,1103.49z"/>
									</g>
								</g>
							</g>
						</g>
					</g>
				</g>
			</g>
		</g>
		<g>
			<g>
				<g>
					<g>
						<g>
							<g>
								<g>
									<g>
										<g>
											<g>
												<g>
													<path class="st17" d="M717.74,900.23c1.38,6.45,10.57,19.39,27.73,19.53c5.41,0.04,10.19-0.84,14.19-2.07
														c8.19-2.52,13.35-10.63,12.38-19.14l-2.62-22.92c15.03-2.02,14.46-19.19,14.46-19.19l0.43-53.37l-61.38-13.62
														l-2.43,58.52l0.4,15.11C720.9,863.08,716.36,893.79,717.74,900.23z"/>
												</g>
											</g>
										</g>
									</g>
								</g>
							</g>
						</g>
					</g>
				</g>
			</g>
			<g>
				<g>
					<g>
						<g>
							<g>
								<g>
									<g>
										<g>
											<g>
												<g>
													<path class="st23" d="M769.42,875.63c0,0-23.3,4.48-34.69-14.86c0,0,0.77,28.73,36.62,31.76L769.42,875.63z"/>
												</g>
											</g>
										</g>
									</g>
								</g>
							</g>
						</g>
					</g>
				</g>
			</g>
			<g>
				<g>
					<g>
						<g>
							<g>
								<g>
									<g>
										<g>
											<g>
												<g>
													<path d="M743.17,830.51c0.37-0.38,9.1-9.14,17.01-2.66c0.31,0.25,0.76,0.21,1.01-0.1c0.25-0.31,0.21-0.76-0.1-1.01
														c-8.93-7.31-18.84,2.66-18.94,2.77c-0.28,0.28-0.27,0.74,0.01,1.01c0.14,0.13,0.32,0.2,0.49,0.2
														C742.84,830.73,743.03,830.66,743.17,830.51z"/>
												</g>
											</g>
										</g>
									</g>
								</g>
							</g>
						</g>
					</g>
				</g>
			</g>
			<g>
				<g>
					<g>
						<g>
							<g>
								<g>
									<g>
										<g>
											<path d="M732.25,798.29c-2.86-5.11-14.18,24.74-14.18,24.74l15.4,3.34l2.77,2.91
												C736.24,829.27,735.12,803.39,732.25,798.29z"/>
										</g>
									</g>
								</g>
							</g>
						</g>
					</g>
				</g>
			</g>
			<g>
				<g>
					<g>
						<g>
							<g>
								<g>
									<g>
										<g>
											<g>
												<g>
													<path d="M772.63,826.51c0.06-0.05,6.22-5.23,9.57-2.3c0.3,0.26,0.75,0.23,1.01-0.07c0.26-0.3,0.23-0.75-0.07-1.01
														c-4.28-3.73-11.15,2.04-11.44,2.29c-0.3,0.26-0.34,0.71-0.08,1.01c0.14,0.16,0.34,0.25,0.54,0.25
														C772.32,826.68,772.49,826.62,772.63,826.51z"/>
												</g>
											</g>
										</g>
									</g>
								</g>
							</g>
						</g>
					</g>
				</g>
			</g>
			<g>
				<g>
					<g>
						<g>
							<g>
								<g>
									<g>
										<g>
											<g>
												<g>
													<path d="M757.09,833.73c0.01-1.18-0.94-2.15-2.13-2.16c-1.18-0.01-2.15,0.94-2.16,2.13c-0.01,1.18,0.94,2.15,2.13,2.16
														C756.11,835.87,757.08,834.92,757.09,833.73z"/>
												</g>
											</g>
										</g>
									</g>
								</g>
							</g>
						</g>
					</g>
				</g>
			</g>
			<g>
				<g>
					<g>
						<g>
							<g>
								<g>
									<g>
										<g>
											<g>
												<g>
													<path d="M779.9,831.77c0.01-1.18-0.94-2.15-2.13-2.16c-1.18-0.01-2.15,0.94-2.16,2.13s0.94,2.15,2.13,2.16
														C778.92,833.91,779.89,832.96,779.9,831.77z"/>
												</g>
											</g>
										</g>
									</g>
								</g>
							</g>
						</g>
					</g>
				</g>
			</g>
			<g>
				<g>
					<g>
						<g>
							<g>
								<g>
									<g>
										<g>
											<g>
												<g>
													<path class="st17" d="M739.38,832.84c0.06-7.11-5.66-12.92-12.76-12.97c-7.11-0.06-12.92,5.66-12.97,12.76
														c-0.06,7.11,5.66,12.92,12.76,12.97C733.51,845.67,739.32,839.95,739.38,832.84z"/>
												</g>
											</g>
										</g>
									</g>
								</g>
							</g>
						</g>
					</g>
				</g>
			</g>
			<g>
				<g>
					<g>
						<g>
							<g>
								<g>
									<g>
										<g>
											<g>
												<g>
													<path class="st23" d="M721.26,829.94c-1.94,1.18-2.75,3.48-2.08,5.86c0.57,2.01,2.34,4.04,5.01,4.06
														c0.03,0,0.05,0,0.08,0c0.2,0,0.36-0.16,0.36-0.36c0-0.2-0.16-0.35-0.35-0.36c-0.03,0-0.05,0-0.07,0
														c-2.46-0.02-3.87-1.91-4.33-3.54c-0.44-1.57-0.25-3.83,1.76-5.06c3.64-2.21,6.67,0.79,6.8,0.92l0.9,0.91l-0.3-1.25
														c-0.54-2.22-1.63-3.81-3.25-4.72c-2.8-1.57-6.13-0.51-6.27-0.47c-0.19,0.06-0.29,0.26-0.23,0.45
														c0.06,0.19,0.26,0.29,0.45,0.23c0.03-0.01,3.19-1,5.71,0.41c1.17,0.65,2.03,1.72,2.57,3.19
														C726.7,829.35,724.13,828.2,721.26,829.94z"/>
												</g>
											</g>
										</g>
									</g>
								</g>
							</g>
						</g>
					</g>
				</g>
			</g>
			<g>
				<g>
					<g>
						<g>
							<g>
								<g>
									<g>
										<g>
											<g>
												<g>
													<path class="st23" d="M764.2,848.01c0.05,0.15,0.19,0.25,0.34,0.25c0.04,0,0.08-0.01,0.11-0.02l7.75-2.49l-2.2-17.47
														c-0.02-0.2-0.2-0.34-0.4-0.31c-0.2,0.02-0.33,0.2-0.31,0.4l2.13,16.88l-7.19,2.31
														C764.24,847.63,764.14,847.83,764.2,848.01z"/>
												</g>
											</g>
										</g>
									</g>
								</g>
							</g>
						</g>
					</g>
				</g>
			</g>
			<g>
				<g>
					<g>
						<g>
							<g>
								<g>
									<g>
										<g>
											<g>
												<g>
													<path class="st24" d="M773.09,854.93c0,0-13.94,0.21-14.16,0.25c0,0,2,5.68,7.18,5.59
														C771.29,860.68,773.09,854.93,773.09,854.93z"/>
												</g>
											</g>
										</g>
									</g>
								</g>
							</g>
						</g>
					</g>
				</g>
			</g>
			<g>
				<g>
					<g>
						<g>
							<g>
								<g>
									<g>
										<g>
											<path d="M778.89,768.1c-5.3-4.71-49.46,11.27-57.21,20.55c-7.75,9.28-3.61,34.37-3.61,34.37
												c10.47-15.59,25.51-19.85,25.51-19.85c22.62,7.52,60.71,1.16,56.83-14.55c-3.88-15.71-21.6-10.18-21.6-10.18
												S784.19,772.82,778.89,768.1z"/>
										</g>
									</g>
								</g>
							</g>
						</g>
					</g>
				</g>
			</g>
		</g>
		<g>
			<g>
				<g>
					<g>
						<g>
							<g>
								<g>
									<g>
										<path class="st22" d="M703.92,1113.98l32.51,8.61c0.65,0.17,1.33-0.22,1.5-0.87c0.17-0.65-0.21-1.32-0.87-1.5l-32.51-8.61
											c-0.65-0.17-1.33,0.22-1.5,0.87c-0.16,0.6,0.16,1.21,0.71,1.44C703.81,1113.95,703.86,1113.97,703.92,1113.98z"/>
									</g>
								</g>
							</g>
						</g>
					</g>
				</g>
			</g>
		</g>
		<g>
			<g>
				<g>
					<g>
						<g>
							<g>
								<g>
									<g>
										<path class="st22" d="M914.7,1105.5c0.01,0,0.01,0.01,0.02,0.01c0.62,0.26,1.33-0.03,1.6-0.64
											c0.27-0.62-0.01-1.34-0.63-1.62l-34.92-15.33c-0.64-0.25-1.34,0.01-1.62,0.63c-0.27,0.62,0.01,1.34,0.63,1.62
											L914.7,1105.5z"/>
									</g>
								</g>
							</g>
						</g>
					</g>
				</g>
			</g>
		</g>
		<g>
			<g>
				<g>
					<g>
						<g>
							<g>
								<g>
									<g>
										<g>
											<g>
												<path class="st13" d="M1059.48,1221.53c3.95,0.26,7.08-1.98,7.54-5.4l22.87-169.07c0.64-4.71-3.95-9.55-9.4-9.91
													l-114.8-7.55c-3.95-0.26-7.08,1.98-7.54,5.4l-22.87,169.07c-0.64,4.71,3.95,9.55,9.4,9.91L1059.48,1221.53z"/>
											</g>
										</g>
									</g>
								</g>
							</g>
						</g>
					</g>
				</g>
			</g>
			<g>
				<g>
					<g>
						<g>
							<g>
								<g>
									<g>
										<g>
											<g>
												<g>
													<g>
														<path class="st17" d="M958.07,1134.96c-0.08,0.03-0.15,0.05-0.22,0.08C961.16,1138.05,960.49,1137,958.07,1134.96z"/>
													</g>
													<g>
														<path class="st17" d="M969.87,1145.24l28.24-11.7c2.92-1.21,4.62-4.7,3.5-7.66c-1.19-3.13-4.72-4.64-7.8-3.37
															c0,0-20.6,7.29-35.75,12.44c2.42,2.04,3.1,3.09-0.22,0.08c-6.75,2.29-12.38,4.15-14.56,4.73l13.07-6.11
															c0.57,0.54,1.06,0.99,1.49,1.38c0.07-0.03,0.15-0.05,0.22-0.08c-2.56-2.16-7.05-5.42-10.87-6.19
															c-8.77-1.77-31.92,19.67-31.92,19.67c-1.06,1.84,0.03,5.97,1.7,9.07c6.46,34.31,7.74,39.54,10.33,48.63l35.69-10.89
															c10.3-3.14,21.08-4.38,31.83-3.67l2.7,0.18c3.32,0.22,6.18-2.34,6.31-5.69c0.12-3.16-2.61-5.92-5.76-6.13l-19.52-1.31
															c-0.61-0.04-1.13-0.47-1.29-1.06c-0.23-0.88,0.39-1.75,1.29-1.81l28.89-1.91c3.31-0.22,5.31-3.02,4.45-6.22
															c-0.86-3.2-4.27-5.65-7.58-5.43l-29.46,1.95c-0.68,0.05-1.3-0.4-1.48-1.06l-0.13-0.47c-0.21-0.77,0.25-1.55,1.02-1.76
															l31.59-8.48c3.05-0.82,5.19-4.06,4.46-7.14c-0.77-3.26-4.08-5.22-7.29-4.36l-31.83,8.55
															c-0.77,0.21-1.55-0.25-1.76-1.01l-0.4-1.49C968.84,1146.24,969.2,1145.52,969.87,1145.24z"/>
													</g>
												</g>
											</g>
										</g>
									</g>
								</g>
							</g>
						</g>
					</g>
				</g>
			</g>
			<g>
				<g>
					<g>
						<g>
							<g>
								<g>
									<g>
										<g>
											<g>
												<path class="st9" d="M1029.81,1095.12c0.03-6.24-4.83-11.12-10.85-10.9c-6.02,0.22-10.93,5.46-10.97,11.7
													c-0.03,6.24,4.83,11.12,10.85,10.9C1024.87,1106.6,1029.78,1101.36,1029.81,1095.12z"/>
											</g>
										</g>
									</g>
								</g>
							</g>
						</g>
					</g>
				</g>
			</g>
			<g>
				<g>
					<g>
						<g>
							<g>
								<g>
									<g>
										<polygon class="st13" points="947.59,1126.37 945.97,1138.96 959.37,1134.49 959.2,1125.37 										"/>
									</g>
								</g>
							</g>
						</g>
					</g>
				</g>
			</g>
			<g>
				<g>
					<g>
						<g>
							<g>
								<g>
									<path class="st22" d="M965.67,1030.84l114.8,7.55c0.66,0.04,1.2-0.47,1.21-1.15c0-0.68-0.53-1.27-1.19-1.31l-114.8-7.55
										c-4.52-0.3-8.2,2.39-8.74,6.39l-13.83,105.2l2.85-0.99l13.36-103.73C959.71,1032.43,962.32,1030.62,965.67,1030.84z"/>
								</g>
							</g>
						</g>
					</g>
				</g>
			</g>
		</g>
		<g>
			<g>
				<g>
					<g>
						<g>
							<g>
								<path class="st10" d="M927.29,1129.16l-30.17,19.42l19.08,28.21l11.44,43.31C939.06,1159.81,927.29,1129.16,927.29,1129.16z
									"/>
							</g>
						</g>
					</g>
				</g>
			</g>
		</g>
		<g>
			<g>
				<g>
					<g>
						<g>
							<g>
								<g>
									<g>
										<path class="st22" d="M931.53,1189.98c0.67,0.06,1.27-0.44,1.33-1.12c3.39-39.82-4.1-59.34-4.42-60.16l-0.27-0.68
											l-0.73-0.09c-55.9-6.71-231.15-7.43-232.91-7.44c-0.68,0-1.23,0.54-1.23,1.22c0,0.51,0.31,0.95,0.75,1.14
											c0.14,0.06,0.3,0.09,0.47,0.09c1.75,0.01,175.31,0.71,231.88,7.33c1.27,3.77,7.01,23.23,4.02,58.37
											C930.35,1189.33,930.85,1189.92,931.53,1189.98z"/>
									</g>
								</g>
							</g>
						</g>
					</g>
				</g>
			</g>
		</g>
		<g>
			<g>
				<g>
					<g>
						<g>
							<path class="st22" d="M764.82,1231.24c70.87,0,157.62-9.14,162.97-9.71c0.78-0.08,1.35-0.79,1.27-1.57
								c-0.08-0.78-0.76-1.36-1.57-1.27c-1.93,0.21-193.91,20.45-242.13,1.54c-47.66-18.68-50.98-123.68-51.01-124.74
								c-0.02-0.79-0.68-1.43-1.47-1.39c-0.79,0.02-1.41,0.68-1.39,1.46c0.12,4.4,3.41,107.95,52.83,127.32
								C700.2,1229.11,730.67,1231.24,764.82,1231.24z"/>
						</g>
					</g>
				</g>
			</g>
		</g>
		<g>
			<g>
				<g>
					<g>
						<g>
							<path class="st10" d="M775.73,915.33c0.11-1.38-3.49-17.99-3.49-17.99l-16.91,17.99l-41.69-12.59l-23.73,39.79
								c0,0,61.91-6.56,64.34-6.35C756.69,936.38,775.63,916.7,775.73,915.33z"/>
						</g>
					</g>
				</g>
			</g>
		</g>
		<g>
			<g>
				<g>
					<g>
						<g>
							<path class="st22" d="M693.19,1380.78c0.04,0,0.07,0,0.1,0c0.74,0,1.37-0.57,1.42-1.33c0.06-0.79-0.54-1.47-1.32-1.53
								c-20.02-1.43-22.77-18.45-27.32-46.65c-0.82-5.07-1.66-10.31-2.68-15.94c-6.78-37.45-9.76-128.19-9.79-129.1
								c-0.03-0.77-0.66-1.38-1.43-1.38c-0.02,0-0.03,0-0.05,0c-0.79,0.02-1.41,0.69-1.38,1.47c0.03,0.91,3.02,91.86,9.83,129.52
								c1.02,5.61,1.86,10.83,2.68,15.89C667.87,1360.31,670.92,1379.19,693.19,1380.78z"/>
						</g>
					</g>
				</g>
			</g>
		</g>
		<g>
			<g>
				<g>
					<g>
						<g>
							<path class="st25" d="M670.86,894.64c6.77,8.41,41.97,11,51.31,14.07c9.22,3.02,32.76,10.17,32.76,10.17
								c6.19-4.6,22.82-24.13,22.82-24.13l16.82,4.67c0.33-17.07-24.82-20.82-24.82-20.82l1.7,14.92c0,0-10.32,15.48-17.38,20.43
								c-14-9.71-36.35-23.47-36.35-23.47l1.77-17.08C693.51,870.43,664.09,886.22,670.86,894.64z"/>
						</g>
					</g>
				</g>
			</g>
		</g>
	</g>
	<g>
		<g>
			<g>
				<g>
					<g>
						<g>
							<g>
								<polygon class="st26" points="3074.35,957.4 3080.6,958.35 3080.6,958.34 								"/>
							</g>
						</g>
						<g>
							<g>
								<polygon class="st26" points="3080.6,958.35 3080.6,958.35 3080.6,958.35 								"/>
							</g>
						</g>
						<g>
							<g>
								<path class="st3" d="M3097.69,1018.62c-21.98-24.72-17.17-59.72-17.09-60.27l-12.5-1.9c-0.25,1.67-5.9,41.17,20.04,70.46
									c17.55,19.81,44.92,29.83,81.45,29.83c2.03,0,4.09-0.03,6.18-0.09l-0.38-12.63
									C3139.76,1045.08,3113.61,1036.53,3097.69,1018.62z"/>
							</g>
						</g>
					</g>
				</g>
			</g>
		</g>
		<g>
			<g>
				<g>
					<g>
						<g>
							<g>
								<path class="st3" d="M3102.85,757c-22.04-24.79-17.14-59.93-17.09-60.29l-6.25-0.94l6.25,0.95l-12.5-1.9
									c-0.25,1.67-5.9,41.17,20.04,70.46c17.55,19.81,44.92,29.83,81.45,29.83c2.03,0,4.09-0.03,6.18-0.09l-0.38-12.63
									C3144.92,783.46,3118.78,774.92,3102.85,757z"/>
							</g>
						</g>
					</g>
				</g>
			</g>
		</g>
		<g>
			<g>
				<g>
					<g>
						<g>
							<g>
								<polygon class="st26" points="3080.6,1293.65 3080.6,1293.65 3080.6,1293.65 								"/>
							</g>
						</g>
						<g>
							<g>
								<polygon class="st26" points="3080.6,1293.63 3074.37,1292.7 3080.6,1293.65 								"/>
							</g>
						</g>
						<g>
							<g>
								<polygon class="st26" points="3080.6,1293.65 3080.6,1293.65 3074.37,1292.7 3074.35,1292.7 								"/>
							</g>
						</g>
						<g>
							<g>
								<path class="st3" d="M3097.69,1353.92c-21.98-24.72-17.17-59.72-17.09-60.27l-6.25-0.95l0.02,0l-6.27-0.95
									c-0.25,1.67-5.9,41.17,20.04,70.46c17.55,19.81,44.92,29.83,81.45,29.83c2.03,0,4.09-0.03,6.18-0.09l-0.38-12.63
									C3139.76,1380.37,3113.61,1371.83,3097.69,1353.92z"/>
							</g>
						</g>
					</g>
				</g>
			</g>
		</g>
		<g>
			<g>
				<g>
					<g>
						<g>
							<g>
								<polygon class="st26" points="3295.37,821.95 3295.37,821.95 3295.37,821.95 								"/>
							</g>
						</g>
						<g>
							<g>
								<path class="st3" d="M3295.37,821.95c0.08,0.55,4.89,35.55-17.09,60.27c-15.93,17.91-42.07,26.46-77.71,25.4l-0.38,12.63
									c2.08,0.06,4.15,0.09,6.18,0.09c36.52,0,63.9-10.02,81.45-29.83c25.95-29.3,20.3-68.8,20.04-70.46L3295.37,821.95z"/>
							</g>
						</g>
						<g>
							<g>
								<polygon class="st26" points="3295.37,821.94 3295.37,821.95 3301.62,821 								"/>
							</g>
						</g>
					</g>
				</g>
			</g>
		</g>
		<g>
			<g>
				<g>
					<g>
						<g>
							<polygon class="st3" points="3200.81,541.58 3200.81,541.58 3186.14,541.58 3186.13,541.58 3171.46,541.58 3171.46,541.58 
								3171.46,542.05 3164.13,1833.45 3208.14,1833.45 3200.81,542.05 							"/>
						</g>
					</g>
				</g>
			</g>
		</g>
		<g>
			<g>
				<g>
					<g>
						<g>
							<path class="st4" d="M3326.88,546.15c0,0-6.43-66.09-59.67-45.9c0,0-34.88-47.73-76.19,9.18c0,0-26.62-74.35-99.14-46.82
								c-72.52,27.54-44.98,100.06-44.98,100.06s-16.76-2.87-22.96,12.13c-5.37,12.99,2.81,27.7,16.45,31.07
								c42.97,10.61,159.09,34,273.57,11.03c22.45-4.5,38.51-25.27,35.71-47.99C3348.3,557.77,3342.37,548.22,3326.88,546.15z"/>
						</g>
					</g>
				</g>
			</g>
		</g>
		<g>
			<g>
				<g>
					<g>
						<g>
							<path class="st4" d="M3164.1,916.24c-33.05-0.92-45.9,26.16-45.9,26.16s-12.85-72.98-66.09-64.72
								c-53.24,8.26-46.82,66.09-46.82,66.09s-22.95-12.85-34.88,9.18c-4.69,8.65-3.43,16.39-0.17,22.59
								c5.03,9.56,14.9,15.58,25.65,16.55c29.54,2.65,112.67,8.79,160.91-1.05c27.26-5.56,42.9-35.49,29.92-60.1
								C3182.45,922.83,3175.46,916.55,3164.1,916.24z"/>
						</g>
					</g>
				</g>
			</g>
		</g>
		<g>
			<g>
				<g>
					<g>
						<g>
							<path class="st4" d="M3356.42,798.17c0,0,5.12-46.08-37.31-52.67c-42.43-6.58-52.67,51.57-52.67,51.57
								s-10.24-21.58-36.58-20.85c-9.05,0.25-14.62,5.26-18.03,11.72c-10.34,19.61,2.12,43.46,23.84,47.89
								c38.44,7.85,104.69,2.95,128.23,0.84c8.57-0.77,16.44-5.57,20.44-13.19c2.6-4.94,3.6-11.1-0.13-18
								C3374.7,787.93,3356.42,798.17,3356.42,798.17z"/>
						</g>
					</g>
				</g>
			</g>
		</g>
		<g>
			<g>
				<g>
					<g>
						<g>
							<path class="st4" d="M3130.01,1268.56c-22.16-0.62-30.78,17.55-30.78,17.55s-8.62-48.95-44.33-43.41
								c-35.71,5.54-31.4,44.33-31.4,44.33s-15.39-8.62-23.4,6.16c-3.14,5.81-2.3,10.99-0.11,15.15c3.37,6.41,9.99,10.45,17.2,11.1
								c19.81,1.78,75.57,5.9,107.92-0.71c18.28-3.73,28.77-23.8,20.07-40.31C3142.32,1272.98,3137.63,1268.77,3130.01,1268.56z"/>
						</g>
					</g>
				</g>
			</g>
		</g>
		<g>
			<g>
				<g>
					<g>
						<g>
							<path class="st4" d="M3167.29,667.66c-22.16-0.62-30.78,17.55-30.78,17.55s-8.62-48.95-44.33-43.41
								c-35.71,5.54-31.4,44.33-31.4,44.33s-15.39-8.62-23.4,6.16c-3.14,5.8-2.3,10.99-0.11,15.15c3.37,6.41,9.99,10.45,17.2,11.1
								c19.81,1.78,75.57,5.9,107.92-0.71c18.28-3.73,28.77-23.8,20.07-40.31C3179.59,672.09,3174.91,667.88,3167.29,667.66z"/>
						</g>
					</g>
				</g>
			</g>
		</g>
	</g>
	<g>
		<g>
			<g>
				<g>
					<g>
						<g>
							<g>
								<polygon class="st26" points="350.78,847.26 357.82,848.33 357.82,848.31 								"/>
							</g>
						</g>
						<g>
							<g>
								<polygon class="st26" points="357.82,848.33 357.82,848.33 357.82,848.33 								"/>
							</g>
						</g>
						<g>
							<g>
								<path class="st3" d="M377.05,916.18c-24.74-27.83-19.33-67.23-19.24-67.85l-14.07-2.14c-0.28,1.88-6.65,46.34,22.56,79.32
									c19.75,22.3,50.57,33.59,91.69,33.58c2.28,0,4.61-0.04,6.95-0.1l-0.42-14.22C424.41,945.96,394.98,936.34,377.05,916.18z"/>
							</g>
						</g>
					</g>
				</g>
			</g>
		</g>
		<g>
			<g>
				<g>
					<g>
						<g>
							<g>
								<path class="st3" d="M382.86,621.67c-24.81-27.91-19.29-67.47-19.23-67.86l-7.04-1.06l7.03,1.07l-14.07-2.14
									c-0.28,1.88-6.65,46.34,22.56,79.32c19.75,22.3,50.57,33.59,91.69,33.58c2.28,0,4.61-0.04,6.95-0.1l-0.42-14.22
									C430.22,651.45,400.79,641.83,382.86,621.67z"/>
							</g>
						</g>
					</g>
				</g>
			</g>
		</g>
		<g>
			<g>
				<g>
					<g>
						<g>
							<g>
								<polygon class="st26" points="357.82,1225.78 357.82,1225.78 357.82,1225.78 								"/>
							</g>
						</g>
						<g>
							<g>
								<polygon class="st26" points="357.82,1225.77 350.8,1224.71 357.82,1225.78 								"/>
							</g>
						</g>
						<g>
							<g>
								<polygon class="st26" points="357.82,1225.78 357.82,1225.78 350.8,1224.71 350.78,1224.71 								"/>
							</g>
						</g>
						<g>
							<g>
								<path class="st3" d="M377.05,1293.63c-24.74-27.83-19.33-67.23-19.24-67.85l-7.03-1.07l0.02,0l-7.05-1.07
									c-0.28,1.88-6.65,46.34,22.56,79.32c19.75,22.3,50.57,33.59,91.69,33.58c2.28,0,4.61-0.04,6.95-0.1l-0.42-14.22
									C424.41,1323.41,394.98,1313.79,377.05,1293.63z"/>
							</g>
						</g>
					</g>
				</g>
			</g>
		</g>
		<g>
			<g>
				<g>
					<g>
						<g>
							<g>
								<polygon class="st26" points="599.58,694.78 599.58,694.78 599.58,694.78 								"/>
							</g>
						</g>
						<g>
							<g>
								<path class="st3" d="M599.58,694.78c0.09,0.62,5.51,40.02-19.24,67.85c-17.93,20.16-47.36,29.78-87.48,28.59l-0.42,14.22
									c2.35,0.07,4.67,0.1,6.95,0.1c41.12,0,71.93-11.28,91.69-33.58c29.21-32.98,22.85-77.45,22.56-79.32L599.58,694.78z"/>
							</g>
						</g>
						<g>
							<g>
								<polygon class="st26" points="599.58,694.77 599.58,694.78 606.62,693.71 								"/>
							</g>
						</g>
					</g>
				</g>
			</g>
		</g>
		<g>
			<g>
				<g>
					<g>
						<g>
							<polygon class="st3" points="493.14,379.16 493.13,379.16 476.62,379.16 476.61,379.16 460.1,379.16 460.09,379.16 
								460.1,379.69 451.84,1833.45 501.39,1833.45 493.14,379.69 							"/>
						</g>
					</g>
				</g>
			</g>
		</g>
		<g>
			<g>
				<g>
					<g>
						<g>
							<path class="st4" d="M635.05,384.31c0,0-7.23-74.4-67.17-51.67c0,0-39.27-53.74-85.77,10.33c0,0-29.97-83.7-111.6-52.7
								c-81.64,31-50.64,112.64-50.64,112.64s-18.87-3.23-25.84,13.66c-6.04,14.62,3.16,31.18,18.52,34.97
								c48.37,11.94,179.09,38.28,307.97,12.41c25.27-5.07,43.35-28.45,40.2-54.03C659.17,397.39,652.49,386.63,635.05,384.31z"/>
						</g>
					</g>
				</g>
			</g>
		</g>
		<g>
			<g>
				<g>
					<g>
						<g>
							<path class="st4" d="M451.81,800.92c-37.2-1.03-51.67,29.45-51.67,29.45s-14.47-82.15-74.4-72.85
								c-59.94,9.3-52.7,74.4-52.7,74.4s-25.83-14.47-39.27,10.33c-5.28,9.74-3.86,18.45-0.19,25.43
								c5.66,10.76,16.77,17.54,28.88,18.63c33.25,2.99,126.84,9.9,181.14-1.19c30.68-6.26,48.29-39.95,33.68-67.65
								C472.47,808.35,464.6,801.28,451.81,800.92z"/>
						</g>
					</g>
				</g>
			</g>
		</g>
		<g>
			<g>
				<g>
					<g>
						<g>
							<path class="st4" d="M668.31,668.01c0,0,5.76-51.88-42-59.29c-47.76-7.41-59.29,58.05-59.29,58.05s-11.53-24.29-41.17-23.47
								c-10.19,0.28-16.46,5.92-20.29,13.19c-11.64,22.07,2.39,48.92,26.84,53.91c43.27,8.83,117.85,3.33,144.35,0.95
								c9.65-0.87,18.5-6.27,23.01-14.84c2.93-5.56,4.06-12.5-0.15-20.27C688.89,656.48,668.31,668.01,668.31,668.01z"/>
						</g>
					</g>
				</g>
			</g>
		</g>
		<g>
			<g>
				<g>
					<g>
						<g>
							<path class="st4" d="M413.44,1197.54c-24.95-0.69-34.65,19.75-34.65,19.75s-9.7-55.1-49.9-48.86
								c-40.2,6.24-35.35,49.9-35.35,49.9s-17.33-9.7-26.34,6.93c-3.54,6.53-2.59,12.37-0.12,17.06
								c3.79,7.22,11.25,11.76,19.37,12.49c22.3,2,85.07,6.64,121.49-0.8c20.58-4.2,32.39-26.8,22.59-45.37
								C427.29,1202.52,422.02,1197.78,413.44,1197.54z"/>
						</g>
					</g>
				</g>
			</g>
		</g>
		<g>
			<g>
				<g>
					<g>
						<g>
							<path class="st4" d="M455.4,521.1c-24.95-0.69-34.65,19.75-34.65,19.75s-9.7-55.1-49.9-48.86
								c-40.2,6.24-35.35,49.9-35.35,49.9s-17.33-9.7-26.34,6.93c-3.54,6.53-2.59,12.37-0.12,17.06
								c3.79,7.22,11.25,11.76,19.37,12.49c22.3,2,85.07,6.64,121.49-0.8c20.58-4.2,32.39-26.8,22.59-45.37
								C469.25,526.08,463.98,521.33,455.4,521.1z"/>
						</g>
					</g>
				</g>
			</g>
		</g>
	</g>
	<g>
		<g>
			<g>
				<g>
					
						<rect x="2141.47" y="1285.18" transform="matrix(-1.836970e-16 1 -1 -1.836970e-16 3506.8469 -860.8788)" class="st12" width="84.78" height="75.61"/>
				</g>
			</g>
		</g>
		<g>
			<g>
				<g>
					
						<rect x="2102.52" y="1633.46" transform="matrix(-1.836970e-16 1 -1 -1.836970e-16 3816.1758 -473.6446)" class="st12" width="84.78" height="75.61"/>
				</g>
			</g>
		</g>
		<g>
			<g>
				<g>
					
						<rect x="2352.28" y="1347.04" transform="matrix(-1.836970e-16 1 -1 -1.836970e-16 3779.5146 -1009.815)" class="st12" width="84.78" height="75.61"/>
				</g>
			</g>
		</g>
		<g>
			<g>
				<g>
					
						<rect x="2931.98" y="1470.77" transform="matrix(-1.836970e-16 1 -1 -1.836970e-16 4482.9517 -1465.7886)" class="st12" width="84.78" height="75.61"/>
				</g>
			</g>
		</g>
		<g>
			<g>
				<g>
					
						<rect x="1905.47" y="1454.74" transform="matrix(-1.836970e-16 1 -1 -1.836970e-16 3440.3984 -455.3141)" class="st12" width="84.78" height="75.61"/>
				</g>
			</g>
		</g>
		<g>
			<g>
				<g>
					
						<rect x="2408.41" y="1304.65" transform="matrix(-1.836970e-16 1 -1 -1.836970e-16 3872.3132 -1187.3926)" class="st12" width="242.88" height="75.61"/>
				</g>
			</g>
		</g>
		<g>
			<g>
				<g>
					
						<rect x="2290.41" y="1271.43" transform="matrix(-1.836970e-16 1 -1 -1.836970e-16 3839.0891 -826.5089)" class="st12" width="84.78" height="469.72"/>
				</g>
			</g>
		</g>
		<g>
			<g>
				<g>
					
						<rect x="2577.97" y="1469.63" transform="matrix(-1.836970e-16 1 -1 -1.836970e-16 4206.8467 -1191.9752)" class="st12" width="242.88" height="75.61"/>
				</g>
			</g>
		</g>
		<g>
			<g>
				<g>
					
						<rect x="2459.97" y="1436.4" transform="matrix(-1.836970e-16 1 -1 -1.836970e-16 4173.6226 -831.0916)" class="st12" width="84.78" height="469.72"/>
				</g>
			</g>
		</g>
		<g>
			<g>
				<g>
					<g>
						<g>
							<path class="st27" d="M2933.69,1671.78c0,0-318.93,52-322.75,49.69c-3.82-2.3-44.59-180.54-44.59-180.54
								s263.75-46.65,268.02-46.64c4.27,0.01,61.47,46.04,62.23,49.1C2897.35,1546.46,2933.69,1671.78,2933.69,1671.78z"/>
						</g>
					</g>
				</g>
			</g>
			<g>
				<g>
					<g>
						<g>
							<path class="st27" d="M1947.86,1745.46c-7.65,0.74-363.91,1.53-363.91,1.53l12.83-130.06c0,0,53.74-80.77,82.02-79.22
								c28.28,1.55,196.58-25.24,225.55-5.03c28.97,20.22,55.01,4.24,68.64,52.44c13.62,48.2,24.34,53.62,13.54,82.62
								C1975.73,1696.74,1947.86,1745.46,1947.86,1745.46z"/>
						</g>
					</g>
				</g>
			</g>
			<g>
				<g>
					<g>
						<g>
							<g>
								<ellipse class="st28" cx="2772.63" cy="1703.03" rx="131.4" ry="131.44"/>
							</g>
						</g>
					</g>
				</g>
				<g>
					<g>
						<g>
							<g>
								
									<ellipse transform="matrix(4.600303e-03 -1 1 4.600303e-03 1056.8546 4467.7959)" class="st29" cx="2772.63" cy="1703.03" rx="91.45" ry="91.42"/>
							</g>
						</g>
					</g>
				</g>
				<g class="st2">
					<g>
						<g>
							<g>
								<path class="st29" d="M2823.82,1627.26c8.75,14.07,13.8,30.68,13.75,48.47c-0.14,50.51-41.19,91.34-91.68,91.2
									c-18.88-0.05-36.4-5.83-50.94-15.68c16.08,25.88,44.71,43.15,77.42,43.24c50.49,0.14,91.54-40.69,91.68-91.2
									C2864.14,1671.67,2848.17,1643.75,2823.82,1627.26z"/>
							</g>
						</g>
					</g>
				</g>
				<g>
					<g>
						<g>
							<g>
								
									<ellipse transform="matrix(1 -4.825861e-03 4.825861e-03 1 -8.1863 13.4001)" class="st30" cx="2772.63" cy="1703.03" rx="61.14" ry="61.16"/>
							</g>
						</g>
					</g>
				</g>
				<g class="st6">
					<g>
						<g>
							<g>
								<path class="st30" d="M2806.54,1652.15c6.4,9.7,10.11,21.32,10.08,33.81c-0.1,33.78-27.55,61.08-61.31,60.99
									c-12.49-0.04-24.08-3.82-33.74-10.27c10.9,16.53,29.61,27.47,50.89,27.53c33.77,0.1,61.22-27.21,61.32-60.99
									C2833.83,1681.92,2823,1663.15,2806.54,1652.15z"/>
							</g>
						</g>
					</g>
				</g>
			</g>
			<g>
				<g>
					<g>
						<g>
							<g>
								
									<ellipse transform="matrix(2.973277e-03 -1 1 2.973277e-03 55.5466 3456.0481)" class="st28" cx="1760.94" cy="1700.17" rx="131.44" ry="131.4"/>
							</g>
						</g>
					</g>
				</g>
				<g>
					<g>
						<g>
							<g>
								
									<ellipse transform="matrix(3.922556e-03 -1 1 3.922556e-03 53.8804 3454.4285)" class="st29" cx="1760.94" cy="1700.17" rx="91.46" ry="91.42"/>
							</g>
						</g>
					</g>
				</g>
				<g class="st2">
					<g>
						<g>
							<g>
								<path class="st29" d="M1812.14,1624.39c8.75,14.07,13.8,30.68,13.75,48.47c-0.14,50.51-41.19,91.34-91.68,91.2
									c-18.88-0.05-36.4-5.83-50.94-15.68c16.08,25.88,44.71,43.15,77.42,43.24c50.49,0.14,91.54-40.69,91.68-91.2
									C1852.46,1668.8,1836.49,1640.88,1812.14,1624.39z"/>
							</g>
						</g>
					</g>
				</g>
				<g>
					<g>
						<g>
							<g>
								
									<ellipse transform="matrix(1.196032e-03 -1 1 1.196032e-03 58.67 3459.0762)" class="st30" cx="1760.94" cy="1700.17" rx="61.16" ry="61.14"/>
							</g>
						</g>
					</g>
				</g>
				<g class="st6">
					<g>
						<g>
							<g>
								<path class="st30" d="M1794.86,1649.28c6.4,9.7,10.11,21.32,10.08,33.81c-0.1,33.78-27.55,61.08-61.32,60.99
									c-12.49-0.04-24.08-3.82-33.74-10.27c10.9,16.53,29.61,27.47,50.89,27.53c33.77,0.1,61.22-27.21,61.32-60.99
									C1822.15,1679.05,1811.32,1660.28,1794.86,1649.28z"/>
							</g>
						</g>
					</g>
				</g>
			</g>
			<g>
				<g>
					<g>
						<g>
							<path class="st31" d="M1459.62,1574.22c11.32-73.22,47.27-88.51,153.56-109.45c117.29-23.11,266.32-99.14,266.32-99.14
								s254.16-123.64,316.37-137.73c62.22-14.09,215.1-9.58,343.53-8.2c128.43,1.38,203.76,37.27,268.85,88.42
								s178.12,90.2,178.12,90.2l20.54,3.73c21.13,3.83,36.46,22.26,36.4,43.73l-0.52,181.78c-0.06,20.58-13.97,38.54-33.89,43.74
								l-74.34,19.41l0,0c-6.05,1.03-11.67-3.29-12.32-9.4c-7.92-74.39-72.05-131.09-148.71-131.21
								c-81.52-0.13-148.55,66.66-148.73,148.17c-0.02,9.26,0.81,18.33,2.42,27.12c1.66,9.08-5.34,17.43-14.57,17.41l-683.63-1.94
								c-13.28-0.04-23.57-11.74-21.77-24.9c0.87-6.33,1.33-12.8,1.37-19.36c0.47-80.51-64.45-147.45-144.94-149.33
								c-83.44-1.96-151.82,64.98-152.05,148.04c-0.02,5.5,0.27,10.93,0.84,16.27c1.61,15.14-10.14,28.36-25.36,28.32l-98.31-0.28
								c-17.87-0.05-32.32-14.58-32.27-32.45l0.27-95.22C1456.85,1599.33,1457.7,1586.7,1459.62,1574.22z"/>
						</g>
					</g>
				</g>
			</g>
			<g>
				<g>
					<g>
						<g>
							<path class="st32" d="M3038.93,1467.28l-80.97-0.23c-6.94-0.02-11.65,7.03-8.99,13.43l9.03,21.73
								c8.61,20.71,28.81,34.23,51.25,34.3l29.48,0.08c5.77,0.02,10.46-4.65,10.48-10.42l0.14-48.42
								C3049.36,1471.98,3044.7,1467.29,3038.93,1467.28z"/>
						</g>
					</g>
				</g>
			</g>
			<g>
				<g>
					<g>
						<g>
							<path class="st33" d="M1588.63,1496.8c46.83-5.42,53.74,17.11,45.21,46.28l0,0c-5.08,17.37-20.52,29.67-38.58,30.76
								l-86.95,5.25c-17.99,1.09-28.06-20.36-15.75-33.51C1492.55,1545.58,1551.07,1501.16,1588.63,1496.8z"/>
						</g>
					</g>
				</g>
			</g>
			<g>
				<g>
					<g>
						<g>
							<path class="st34" d="M3042.32,1634.33c5.57-0.12,9.51,5.49,7.44,10.67c-5.86,14.64-18.36,26.12-34.32,30.29l-83.29,21.75
								c-6.78,1.15-13.07-3.69-13.8-10.53c-1.5-14.1-4.83-27.62-9.7-40.36c-1.65-4.32,1.5-8.96,6.12-9.06L3042.32,1634.33z"/>
						</g>
					</g>
				</g>
			</g>
			<g>
				<g>
					<g>
						<g>
							<path class="st34" d="M1611.03,1664.53c6.32-0.14,11.19,5.42,10.36,11.7c-0.92,6.97-1.41,14.07-1.43,21.29
								c-0.02,6.1,0.3,12.13,0.93,18.06c1.79,16.79-11.25,31.47-28.14,31.42l-109.08-0.31c-19.83-0.06-35.86-16.18-35.81-36.01
								l0.08-28.23c0.02-8,6.43-14.53,14.43-14.7L1611.03,1664.53z"/>
						</g>
					</g>
				</g>
			</g>
			<g class="st2">
				<g>
					<g>
						<g>
							<g>
								<path class="st35" d="M1876.74,1409.06l0.81,2.68c0.41,1.36,41.28,137.75,42.92,268.25l0.04,3.45l401.57-6.69v0.02
									l3.55-0.08l3.33-0.06v-0.02l288.21-6.59l0.27-3.07c0.03-0.36,3.48-36.08,30.64-69.83c35.94-44.65,97.19-65.75,177.1-61.01
									l2.94,0.17l27.85-128.89l-1.19-1.31c-4.3-4.74-106.19-116.45-184.59-141.13c-77.83-24.5-331.24-19.72-343.41-19.48
									c-4.56-0.24-110.46-5.2-205.46,38.47c-95.96,44.11-240.69,122.98-242.14,123.78L1876.74,1409.06z M2328.99,1669.72
									l1.18-417.43c30.96-0.5,265.75-3.52,337.97,19.22c72.18,22.72,168.58,125.15,180.37,137.9l-25.86,119.67
									c-102.18-5.29-154.34,31.79-180.16,64.02c-23.95,29.9-30.11,60.51-31.53,70.18L2328.99,1669.72z M1884.93,1412.43
									c19.44-10.56,150.39-81.37,239.28-122.24c85.69-39.39,180.51-38.57,199.08-37.98l-1.18,417.65l-394.81,6.58
									C1925.17,1556.18,1890.63,1432.12,1884.93,1412.43z"/>
							</g>
						</g>
					</g>
				</g>
			</g>
			<g>
				<g>
					<g>
						<g>
							<path class="st34" d="M1890.46,1706.04c0.04-7.44-0.49-14.77-1.55-21.95c-1.27-8.62,5.4-16.41,14.41-16.59l736.49-15.3
								c8.03-0.17,13.81,7.25,11.59,14.71c-3.86,13.01-5.94,26.72-5.97,40.87c-0.02,9.38,0.85,18.55,2.52,27.46
								c1.75,9.3-5.54,17.89-15.33,17.86l-720.66-2.01c-14.14-0.04-24.79-12.14-22.91-25.67
								C1889.95,1719.08,1890.42,1712.61,1890.46,1706.04z"/>
						</g>
					</g>
				</g>
			</g>
			<g>
				<g>
					<g>
						<g>
							<path class="st28" d="M2694.29,1461.75l90.11,0.26c1.72,0.01,3.11-1.38,3.12-3.1l0.03-9.33c0.01-1.72-1.38-3.11-3.1-3.12
								l-90.11-0.26c-1.72,0-3.11,1.38-3.12,3.1l-0.03,9.33C2691.18,1460.35,2692.57,1461.75,2694.29,1461.75z"/>
						</g>
					</g>
				</g>
			</g>
			<g>
				<g>
					<g>
						<g>
							<path class="st28" d="M2205.19,1468.14l90.11,0.26c1.72,0,3.11-1.38,3.12-3.1l0.03-9.33c0.01-1.72-1.38-3.11-3.1-3.12
								l-90.11-0.26c-1.72-0.01-3.11,1.38-3.12,3.1l-0.03,9.33C2202.08,1466.74,2203.47,1468.13,2205.19,1468.14z"/>
						</g>
					</g>
				</g>
			</g>
			<g>
				<g>
					<g>
						<g>
							<path class="st36" d="M2770.65,1422.44l-392.97,2.6c0,0-24.05-0.71-27.26-23.36c-3.21-22.64-2.66-119.57-2.66-119.57
								s2.91-19.45,21.55-19.65c11.33-0.12,106.29-6.64,198.59,4.87c75.3,9.39,144.89,43.99,197.56,96.99l27.81,27.98
								C2793.29,1392.29,2812.01,1422.16,2770.65,1422.44z"/>
						</g>
					</g>
				</g>
			</g>
			<g>
				<g>
					<g>
						<g>
							<path class="st36" d="M2303.99,1294.28l-0.29,101.63c-0.04,13.2-10.2,24.02-23.01,24.5l-308.81,11.54
								c-7.09,0.26-14.02-2.96-18.07-8.96c-5.52-8.18-6.12-21.63,21.6-39.56c48.21-31.2,170.81-98.61,216.12-105.04
								c28.84-4.09,66.56-5.8,90.16-6.5C2293.93,1271.53,2304.03,1281.66,2303.99,1294.28z"/>
						</g>
					</g>
				</g>
			</g>
			<g class="st6">
				<g>
					<g>
						<g>
							<path class="st9" d="M2602.39,1423.55l-77.75,0.51l-57.49-163.37c25.1,0.43,53,1.69,81.22,4.46L2602.39,1423.55z"/>
						</g>
					</g>
				</g>
			</g>
			<g class="st6">
				<g>
					<g>
						<g>
							<path class="st9" d="M2495.12,1424.26l-29.21,0.19l-54.49-163.51c7.76-0.19,16.36-0.34,25.61-0.4L2495.12,1424.26z"/>
						</g>
					</g>
				</g>
			</g>
			<g class="st6">
				<g>
					<g>
						<g>
							<path class="st9" d="M2139.35,1295.68c21.17-9.06,39.63-15.52,52.17-17.3c6.44-0.91,13.34-1.7,20.42-2.4l49.5,145.14
								l-76.94,2.88L2139.35,1295.68z"/>
						</g>
					</g>
				</g>
			</g>
			<g class="st6">
				<g>
					<g>
						<g>
							<path class="st9" d="M2155.32,1425.09l-28.96,1.08l-35.85-107.57c7.76-3.9,15.47-7.67,23.03-11.25L2155.32,1425.09z"/>
						</g>
					</g>
				</g>
			</g>
		</g>
		<g>
			<g>
				<g>
					
						<rect x="1977.89" y="1657.35" transform="matrix(0.9998 -0.0208 0.0208 0.9998 -33.9816 47.6712)" class="st11" width="600.05" height="4.74"/>
				</g>
			</g>
		</g>
		<g>
			<g>
				<g>
					
						<rect x="2273.2" y="1399.28" transform="matrix(2.596078e-03 -1 1 2.596078e-03 517.5583 4023.125)" class="st11" width="4.74" height="705.67"/>
				</g>
			</g>
		</g>
		<g>
			<g>
				<g>
					<path class="st11" d="M1459.02,1669.12c2.32-65.24,6.69-112.92,6.73-113.39c5.86-40.04,52.26-73.52,112.81-81.29
						c59.95-7.69,152.92-42.02,190.11-56.42c34.73-13.45,186.74-85.97,188.27-86.7l-2.04-4.28c-1.53,0.73-153.37,73.17-187.94,86.56
						c-37.03,14.34-129.56,48.51-189,56.14c-30.04,3.86-58.09,14.24-78.98,29.23c-21.71,15.58-34.83,35.01-37.93,56.2
						c-0.06,0.6-4.44,48.4-6.76,113.78L1459.02,1669.12z"/>
				</g>
			</g>
		</g>
		<g>
			<g>
				<g>
					
						<rect x="2407.53" y="1422.15" transform="matrix(1 -3.233372e-03 3.233372e-03 1 -4.5926 8.3078)" class="st11" width="319.14" height="4.74"/>
				</g>
			</g>
		</g>
		<g>
			<g>
				<g>
					
						<rect x="2012.71" y="1425.62" transform="matrix(0.9995 -0.0309 0.0309 0.9995 -43.0979 66.8491)" class="st11" width="257.68" height="4.74"/>
				</g>
			</g>
		</g>
		<g>
			<g>
				<g>
					
						<rect x="2005.06" y="1546.15" transform="matrix(0.6883 -0.7254 0.7254 0.6883 -517.6694 1947.5043)" class="st11" width="4.74" height="60"/>
				</g>
			</g>
		</g>
		<g>
			<g>
				<g>
					
						<rect x="1975.58" y="1541.59" transform="matrix(0.6883 -0.7254 0.7254 0.6883 -523.548 1924.6984)" class="st11" width="4.74" height="60"/>
				</g>
			</g>
		</g>
		<g>
			<g>
				<g>
					
						<rect x="2946.06" y="1562.41" transform="matrix(0.6883 -0.7254 0.7254 0.6883 -236.1605 2635.1868)" class="st11" width="4.74" height="60"/>
				</g>
			</g>
		</g>
		<g>
			<g>
				<g>
					
						<rect x="2916.58" y="1557.84" transform="matrix(0.6883 -0.7254 0.7254 0.6883 -242.0237 2612.4287)" class="st11" width="4.74" height="60"/>
				</g>
			</g>
		</g>
		<g>
			<g>
				<g>
					
						<rect x="2933.65" y="1633.82" transform="matrix(0.9992 -0.0391 0.0391 0.9992 -61.7563 117.9343)" class="st11" width="94.88" height="4.74"/>
				</g>
			</g>
		</g>
		<g>
			<g>
				<g>
					<path class="st11" d="M3018.5,1540.11c8.67,0,14.6-1.18,14.78-1.22l-0.97-4.64c-2.13,0.44-52.43,10.39-72.15-33.02l-4.32,1.96
						C2970.26,1534.92,3000.37,1540.11,3018.5,1540.11z"/>
				</g>
			</g>
		</g>
		<g>
			<g>
				<g>
					<path class="st11" d="M2994.77,1402.24l1.27-4.56c-0.33-0.09-33.53-9.43-65.14-23.84c-5.88-2.68-11.85-5.32-17.63-7.87
						c-25.68-11.35-52.23-23.09-78.12-41.74l-2.77,3.84c26.3,18.94,53.08,30.78,78.98,42.23c5.76,2.55,11.72,5.18,17.58,7.85
						C2960.89,1392.72,2994.43,1402.15,2994.77,1402.24z"/>
				</g>
			</g>
		</g>
		<g>
			<g>
				<g>
					<path class="st11" d="M1482.96,1749.33c1.45,0,2.93-0.09,4.47-0.29l-0.6-4.7c-21.25,2.7-32.51-17.85-34.54-22
						c-2.83-5.76-4.56-40.88,1.93-48.88c5.53-5.33,84.93-7.36,156.8-6.56l0.05-4.74c-0.38,0-38.29-0.42-76.62,0.29
						c-78.58,1.46-82.31,6.06-83.9,8.02c-8.43,10.4-5.62,47.61-2.5,53.95C1450.18,1728.79,1461.42,1749.33,1482.96,1749.33z"/>
				</g>
			</g>
		</g>
	</g>
	<g>
		<g>
			<rect x="188.63" y="1832.68" class="st26" width="3113.31" height="10.67"/>
		</g>
	</g>
</g>
</svg>
